<svg version="1.1" id="Layer_1" xmlns="http://www.w3.org/2000/svg" xmlns:xlink="http://www.w3.org/1999/xlink" x="0px" y="0px"
	 width="100%" viewBox="0 0 804 783" enable-background="new 0 0 804 783" xml:space="preserve">
<path fill="#28555A" opacity="1.000000" stroke="none" 
	d="
M405.000000,784.000000 
	C270.000000,784.000000 135.500000,784.000000 1.000000,784.000000 
	C1.000000,523.000000 1.000000,262.000000 1.000000,1.000000 
	C269.000000,1.000000 537.000000,1.000000 805.000000,1.000000 
	C805.000000,262.000000 805.000000,523.000000 805.000000,784.000000 
	C671.833313,784.000000 538.666687,784.000000 405.000000,784.000000 
M112.178688,381.382385 
	C120.133392,393.612091 128.088104,405.841797 136.169952,418.266968 
	C145.406830,412.748596 154.169144,407.639221 162.785034,402.293884 
	C165.558212,400.573425 167.928482,398.581177 167.982742,394.485565 
	C168.436981,360.188721 169.054474,325.893585 169.773224,291.601074 
	C169.957947,282.786774 170.452148,273.963837 171.228607,265.182373 
	C171.748611,259.301453 171.064926,258.371246 165.167252,259.719818 
	C158.526810,261.238220 151.918259,262.897949 145.269501,264.377960 
	C136.333298,266.367188 135.440536,267.410065 135.434875,276.761261 
	C135.421677,298.584747 135.428925,320.408264 135.405930,342.231750 
	C135.404129,343.936127 135.231216,345.640320 135.137833,347.344604 
	C132.379990,344.352448 130.573700,341.244843 128.829697,338.102661 
	C114.625923,312.511627 100.395020,286.935516 86.282516,261.294220 
	C84.307648,257.706055 81.961456,257.075806 78.569832,259.006805 
	C69.749329,264.028717 60.954441,269.097809 52.065662,273.996246 
	C49.320702,275.508972 49.143280,277.195953 50.610313,279.665314 
	C52.480312,282.812897 54.418747,285.953583 55.896809,289.288239 
	C56.858246,291.457336 57.619099,293.996765 57.496140,296.318756 
	C56.774952,309.937897 55.877998,323.550354 54.831242,337.148987 
	C52.991627,361.047729 50.982292,384.933411 49.083050,408.827637 
	C48.303238,418.638458 49.341995,419.582611 58.795044,416.595001 
	C66.078529,414.293091 73.295929,411.686646 80.292862,408.641510 
	C82.009964,407.894165 83.603966,404.985535 83.799461,402.932068 
	C84.887482,391.503326 85.491920,380.029327 86.333633,368.576111 
	C86.873695,361.227325 87.537567,353.887665 88.145927,346.543915 
	C88.511772,346.458527 88.877609,346.373169 89.243446,346.287781 
	C96.758263,357.783722 104.273071,369.279633 112.178688,381.382385 
M711.866028,410.405640 
	C716.417236,400.062775 720.948425,389.711029 725.523926,379.378876 
	C735.625610,356.567383 745.782288,333.780151 755.838501,310.948669 
	C758.020569,305.994690 757.375427,305.124969 752.055359,303.811615 
	C743.507935,301.701508 734.846130,299.901733 726.518555,297.115997 
	C722.046875,295.620056 720.486328,296.416840 719.010803,300.698486 
	C712.078857,320.814636 704.861816,340.832642 697.710022,360.872650 
	C697.294495,362.036835 696.558044,363.086456 695.484741,365.102814 
	C691.127197,341.344910 686.960754,318.628998 682.833679,296.127899 
	C670.740295,299.014465 659.625549,301.702820 648.490234,304.302765 
	C645.335876,305.039276 645.763306,307.185303 646.317322,309.333862 
	C654.905396,342.640625 663.598145,375.920868 672.003784,409.273499 
	C672.743774,412.209534 672.364624,415.879700 671.276367,418.741638 
	C667.675476,428.211334 663.579041,437.496399 659.529175,446.789734 
	C657.986511,450.329865 658.902588,451.809570 662.693909,452.592926 
	C670.173645,454.138336 677.670776,455.781372 684.945190,458.069214 
	C689.185425,459.402802 690.698792,458.216858 692.323425,454.418579 
	C698.535706,439.894745 705.119995,425.530060 711.866028,410.405640 
M290.756561,328.923645 
	C286.028442,311.834778 274.996185,300.974396 257.824524,296.996460 
	C231.090973,290.803406 201.834122,306.565338 190.114120,332.971344 
	C179.504547,356.875519 183.455582,383.416016 200.913834,400.027710 
	C224.887802,422.839081 256.441864,418.966522 283.591370,405.268097 
	C284.597961,404.760254 285.768524,403.338074 285.791901,402.317535 
	C285.973572,394.374847 285.892273,386.426117 285.892273,377.413483 
	C282.412354,378.902985 279.701416,379.979309 277.061523,381.208191 
	C266.650360,386.054626 255.887207,389.146545 244.240662,388.032196 
	C233.560562,387.010376 226.175400,380.842682 225.400040,372.216003 
	C225.863052,372.105347 226.342026,371.877045 226.808685,371.899872 
	C228.470215,371.981293 230.127563,372.148102 231.786469,372.282837 
	C247.347260,373.546844 262.033539,370.765106 275.100586,361.958374 
	C286.405090,354.339600 293.793854,344.468262 290.756561,328.923645 
M619.775269,277.499542 
	C623.947571,271.313904 627.926697,269.617737 635.108826,271.321381 
	C638.333984,272.086426 641.571289,273.036133 644.587646,274.384094 
	C648.079712,275.944641 649.855408,274.687408 651.194092,271.558838 
	C653.417236,266.363373 655.595337,261.137238 658.110107,256.082092 
	C659.723694,252.838669 658.924377,251.056259 655.636597,250.137665 
	C647.325623,247.815598 639.123901,244.784378 630.655579,243.421402 
	C619.238708,241.583832 607.662170,241.694870 597.368042,248.340103 
	C584.674622,256.534149 580.186096,269.435699 577.895203,283.429810 
	C576.725342,290.576019 575.896423,297.778076 574.779236,305.934021 
	C562.402954,301.238739 558.645386,310.264648 553.994080,317.914673 
	C552.957031,319.620270 551.825378,321.269287 550.815979,322.990509 
	C549.518250,325.203278 548.299927,327.462585 546.264404,331.101898 
	C555.494141,331.548889 563.311890,331.927490 571.113220,332.305298 
	C571.113220,333.592468 571.193481,334.592651 571.101440,335.576721 
	C568.793091,360.260406 566.425354,384.938568 564.170410,409.627106 
	C563.548584,416.434723 565.353943,417.692749 571.917114,415.453949 
	C579.942932,412.716095 587.961182,409.955811 595.992188,407.233093 
	C605.377075,404.051392 605.210327,404.048218 606.132507,394.294708 
	C607.996338,374.581482 610.103210,354.891357 612.008606,335.181885 
	C612.289734,332.273590 613.430969,331.094299 616.405212,331.229370 
	C620.560913,331.418030 624.735291,331.168762 628.894897,331.308441 
	C632.125610,331.416962 634.206726,330.250671 635.462769,327.157715 
	C637.589172,321.921661 640.068298,316.829468 642.223450,311.604340 
	C644.333252,306.489624 643.358887,305.196808 637.625122,305.175751 
	C629.855957,305.147247 622.086731,305.168640 613.225830,305.168640 
	C615.402039,295.566956 617.377625,286.850433 619.775269,277.499542 
M446.718628,344.179840 
	C447.072723,341.205963 447.637787,338.238220 447.724854,335.256531 
	C447.822968,331.896912 449.474426,331.109924 452.504028,331.233856 
	C457.158386,331.424225 461.846802,331.532013 466.478638,331.155914 
	C468.344208,331.004456 471.015198,329.944946 471.743011,328.502930 
	C474.732300,322.579956 477.180267,316.377502 479.694275,310.223450 
	C481.034088,306.943695 479.955475,305.097321 476.187073,305.160889 
	C472.691437,305.219879 469.193970,305.167938 465.697296,305.167084 
	C460.775482,305.165894 455.853699,305.166779 450.678345,305.166779 
	C451.976715,291.653931 453.196411,278.959747 454.437592,266.041687 
	C452.813599,266.041687 451.818848,265.868408 450.905792,266.068268 
	C441.013519,268.233765 431.131531,270.446442 421.251984,272.669617 
	C413.608917,274.389557 413.706665,274.413605 412.929596,282.290649 
	C412.185028,289.837585 411.216156,297.362366 410.392487,304.493164 
	C407.254974,305.160217 403.771393,304.847748 402.703857,306.305084 
	C397.271210,313.721405 392.463928,321.595856 387.437714,329.309906 
	C387.696716,329.898743 387.955719,330.487549 388.214722,331.076385 
	C395.013885,331.490509 401.813049,331.904663 409.002716,332.342590 
	C408.796753,335.197815 408.618134,337.812317 408.417999,340.425201 
	C407.300446,355.016144 405.429077,369.596527 405.231049,384.199738 
	C404.929382,406.444550 418.597321,418.852661 440.630066,415.989441 
	C452.050476,414.505280 463.134399,410.413849 474.360168,407.461609 
	C477.318420,406.683624 477.552277,404.560577 476.954956,401.977570 
	C475.756836,396.796204 474.504059,391.619202 473.575317,386.386841 
	C472.985870,383.066010 471.602509,382.259277 468.440002,383.381744 
	C464.534698,384.767914 460.562500,386.194977 456.497559,386.854126 
	C448.250092,388.191437 444.033966,385.064697 444.193207,376.836914 
	C444.398529,366.228516 445.678650,355.640961 446.718628,344.179840 
M317.917877,307.416626 
	C298.808563,321.809509 301.793457,352.258850 320.414337,364.023102 
	C325.609558,367.305359 330.505981,371.059021 335.558807,374.568634 
	C338.936615,376.914795 342.268250,379.572418 341.266724,384.157349 
	C340.170715,389.174835 335.627625,389.784882 331.427917,390.213989 
	C323.588104,391.015106 316.661957,388.713837 310.542236,383.761261 
	C309.135345,382.622681 307.442352,381.837585 304.956848,380.328857 
	C305.401978,389.866608 306.071655,398.145844 306.048492,406.423126 
	C306.037811,410.240234 307.746277,411.957947 310.828735,412.944305 
	C331.600281,419.591095 351.008545,417.407745 367.989502,403.022400 
	C380.446991,392.469025 382.675140,374.267395 372.913208,361.701233 
	C369.128693,356.829529 363.724518,353.125336 358.742615,349.300354 
	C353.868317,345.557953 348.542694,342.409302 343.507721,338.868408 
	C339.328186,335.929138 337.564545,331.140839 338.943146,326.652191 
	C340.346130,322.084137 344.234222,320.680450 348.312500,320.619995 
	C351.859802,320.567383 355.797302,320.862335 358.891815,322.375275 
	C363.444092,324.600922 367.376984,328.080414 371.625061,330.949829 
	C372.785797,331.733917 374.130157,332.246246 375.390259,332.883270 
	C375.823486,331.380829 376.645630,329.871429 376.618835,328.377228 
	C376.529572,323.395050 376.096222,318.420135 375.867310,313.439087 
	C375.419434,303.692169 374.202545,302.013275 364.961639,298.720062 
	C347.898895,292.639221 332.596436,296.607727 317.917877,307.416626 
M496.220764,317.679138 
	C493.325684,350.405548 490.430634,383.131958 487.472321,416.573242 
	C489.784729,415.969849 491.054047,415.721680 492.267365,415.309021 
	C502.178711,411.937897 511.971130,408.154053 522.027405,405.297272 
	C527.429749,403.762604 529.384521,400.986542 529.844849,395.642670 
	C532.600098,363.659637 535.613220,331.698853 538.503662,299.727356 
	C538.611938,298.529236 538.345825,297.297241 538.254333,296.084198 
	C528.211304,298.398529 518.706970,300.695862 509.153137,302.764740 
	C495.461578,305.729645 497.910187,302.383820 496.220764,317.679138 
M538.629089,278.182434 
	C539.479431,276.544434 540.891418,274.969299 541.083069,273.257568 
	C541.915405,265.821655 542.443787,258.349579 542.969421,250.882690 
	C543.149231,248.328384 542.997986,245.750763 542.997986,243.171234 
	C542.146973,243.039337 541.631287,242.812576 541.189392,242.912338 
	C529.190796,245.621201 517.177856,248.274918 505.238556,251.226227 
	C503.932220,251.549149 502.669098,253.459976 502.084686,254.914978 
	C501.426971,256.552521 501.504883,258.503784 501.361145,260.326324 
	C500.700287,268.705597 500.073761,277.087585 499.377838,286.217743 
	C512.816345,283.484253 525.328857,280.939117 538.629089,278.182434 
M261.842743,510.235352 
	C261.850403,507.242218 261.792816,504.247162 261.882111,501.256470 
	C261.995667,497.454681 264.598297,496.163849 267.839996,495.861603 
	C271.391113,495.530579 272.443542,498.005859 272.692871,500.873322 
	C272.908203,503.349884 272.726562,505.858459 272.798157,508.350647 
	C272.874084,510.995178 273.041626,513.637024 273.169159,516.280090 
	C273.668182,516.322083 274.167236,516.364136 274.666290,516.406128 
	C274.940308,515.275818 275.411560,514.152344 275.451050,513.013916 
	C275.566284,509.691803 275.452118,506.362305 275.533264,503.038300 
	C275.647766,498.349335 278.007690,495.685028 281.862518,495.787506 
	C286.482300,495.910309 286.375885,499.450043 286.551575,502.565948 
	C286.738525,505.881317 286.363525,509.241730 286.729004,512.527405 
	C286.881256,513.896362 288.051453,515.741028 289.236389,516.243713 
	C290.467773,516.766052 292.276184,515.928345 293.832245,515.685425 
	C293.799896,515.283813 293.767517,514.882202 293.735168,514.480591 
	C292.304016,514.039917 290.872894,513.599182 289.172058,513.075439 
	C289.172058,510.709930 289.177460,508.562103 289.170563,506.414307 
	C289.163605,504.252625 289.250519,502.084015 289.109314,499.930725 
	C288.779846,494.905212 285.065613,491.971466 280.252350,493.160828 
	C278.407684,493.616669 276.764862,494.889435 274.744537,495.938171 
	C270.694885,491.693817 266.250885,492.068268 261.858978,495.844391 
	C260.645294,495.060303 259.516785,494.331268 258.155701,493.451965 
	C257.849945,508.293823 258.828217,515.067261 261.843231,516.177063 
	C261.843231,514.368408 261.843231,512.747620 261.842743,510.235352 
M560.886475,508.300262 
	C560.717712,505.156311 560.885254,501.948914 560.306580,498.882294 
	C559.264404,493.359283 554.190674,491.269073 549.277649,494.090485 
	C548.186523,494.717072 547.219788,495.560303 546.112854,496.364044 
	C543.535156,492.873901 540.416138,492.308502 536.680420,493.508453 
	C534.499451,494.208984 532.193481,494.520203 529.490784,495.104462 
	C529.808167,501.343475 530.187500,508.800964 530.566833,516.258423 
	C531.128601,516.314087 531.690308,516.369751 532.252014,516.425415 
	C532.509888,515.191284 532.953308,513.962646 532.990173,512.721985 
	C533.093872,509.231842 533.013916,505.736664 533.036804,502.243652 
	C533.063416,498.174469 535.378296,496.110260 539.197815,495.852722 
	C543.530029,495.560577 543.815796,498.766113 543.862732,501.912201 
	C543.919800,505.737152 543.772156,509.568451 543.947266,513.386292 
	C543.995911,514.446228 544.874756,515.468201 545.372742,516.507568 
	C545.902344,516.374512 546.431885,516.241516 546.961426,516.108459 
	C546.961426,511.370361 546.871094,506.629974 546.988892,501.894806 
	C547.090088,497.826263 549.564636,495.938843 553.420776,495.830444 
	C557.486816,495.716064 557.733948,498.713928 557.794678,501.662262 
	C557.869995,505.320251 557.535950,509.017914 557.989807,512.621460 
	C558.170166,514.054138 559.760010,515.705994 561.142700,516.445740 
	C562.007202,516.908203 563.682617,515.854980 563.764221,515.831787 
	C562.572632,513.095093 561.729065,511.157715 560.886475,508.300262 
M483.797546,498.836182 
	C474.216217,498.734467 475.467773,499.799500 475.346863,490.762268 
	C475.331360,489.604309 475.559906,488.182434 474.990295,487.353790 
	C474.141785,486.119415 472.802063,484.785675 471.446594,484.475006 
	C470.362823,484.226593 468.944092,485.439728 467.674011,486.004120 
	C467.807281,486.372437 467.940582,486.740723 468.073853,487.109009 
	C469.436035,487.209869 470.798248,487.310699 473.141693,487.484192 
	C473.141693,497.188843 473.141693,506.737061 473.141693,516.285278 
	C473.773895,516.301086 474.406128,516.316895 475.038330,516.332703 
	C475.247375,511.566467 475.456421,506.800232 475.671997,501.884766 
	C481.510620,501.884766 486.881775,501.884766 492.415558,501.884766 
	C492.670319,506.969940 492.904510,511.644897 493.138702,516.319885 
	C493.644562,516.278137 494.150452,516.236389 494.656311,516.194702 
	C494.656311,505.826935 494.656311,495.459167 494.656311,485.091431 
	C494.130768,485.060669 493.605225,485.029907 493.079681,484.999146 
	C492.865448,489.417633 492.651245,493.836121 492.408783,498.836792 
	C489.640991,498.836792 487.188232,498.836792 483.797546,498.836182 
M200.273300,484.189148 
	C198.825272,484.800262 197.377243,485.411407 195.929199,486.022522 
	C196.042465,486.397125 196.155746,486.771698 196.269012,487.146271 
	C197.765198,487.364014 199.261383,487.581726 201.102173,487.849609 
	C201.102173,492.864838 200.889389,497.681244 201.163208,502.469818 
	C201.426758,507.078918 199.935867,511.975372 202.099213,516.341858 
	C202.715240,516.320007 203.331268,516.298096 203.947296,516.276245 
	C203.947296,511.627411 203.947296,506.978607 203.947296,501.970062 
	C210.073273,501.970062 215.281296,501.970062 221.472229,501.970062 
	C221.472229,506.923828 221.472229,511.662384 221.472229,517.667236 
	C224.700439,513.127747 224.729294,488.358795 221.482803,485.008240 
	C221.482803,489.410889 221.482803,493.813568 221.482803,498.749237 
	C217.359924,498.749237 214.237335,498.753998 211.114777,498.748260 
	C204.302124,498.735748 204.288025,498.733673 204.243378,492.034332 
	C204.223373,489.032623 204.605820,485.887146 200.273300,484.189148 
M364.996643,510.140076 
	C362.305328,504.563782 362.506012,497.513916 356.728485,493.489441 
	C360.208954,500.969666 360.864441,509.621796 365.230072,516.689880 
	C365.732178,516.610107 366.234253,516.530334 366.736328,516.450500 
	C368.696838,510.828979 370.657379,505.207428 372.617889,499.585846 
	C375.311737,504.582886 376.839508,509.319397 378.563385,513.983459 
	C378.908203,514.916321 380.000671,515.572815 380.748413,516.356750 
	C381.485596,515.596741 382.595734,514.961975 382.899994,514.056519 
	C385.014984,507.762329 386.989410,501.420013 388.916199,495.065063 
	C389.080750,494.522369 388.571106,493.775238 388.374634,493.123108 
	C387.976959,493.062988 387.579315,493.002838 387.181641,492.942719 
	C385.098633,498.917816 383.015656,504.892944 380.660217,511.649536 
	C378.370422,504.814087 376.350952,498.785706 374.331512,492.757324 
	C373.688660,492.835754 373.045837,492.914185 372.402985,492.992615 
	C371.609070,494.894104 370.770966,496.778595 370.030426,498.700653 
	C368.492065,502.693390 367.005432,506.705994 364.996643,510.140076 
M338.638855,485.177032 
	C333.281616,490.374359 333.785797,495.005585 340.191406,498.595825 
	C342.644287,499.970673 345.315308,500.965759 347.727417,502.401825 
	C351.585541,504.698669 352.054932,509.318146 348.927643,512.522766 
	C345.796539,515.731323 340.401733,515.751221 336.808502,512.277710 
	C335.589996,511.099792 335.007477,509.263977 334.134308,507.728790 
	C333.558777,508.276459 332.983246,508.824127 332.407715,509.371765 
	C332.207886,513.135498 334.974792,514.987427 337.903687,516.298401 
	C342.295135,518.263977 346.688263,518.003296 350.532501,514.762695 
	C355.415344,510.646515 355.026093,503.872955 349.632538,500.462952 
	C347.258148,498.961853 344.647369,497.828735 342.119080,496.578857 
	C339.352448,495.211151 336.767059,493.022461 338.575989,490.101776 
	C339.688782,488.304932 343.056641,487.520782 345.528412,487.211029 
	C346.171814,487.130432 347.251495,490.531982 348.407837,492.901947 
	C348.865356,492.411072 350.733917,491.309662 350.808380,490.098053 
	C350.901764,488.577545 349.804321,485.878967 348.728760,485.602417 
	C345.722046,484.829254 342.461792,485.041901 338.638855,485.177032 
M312.355804,512.836243 
	C304.764740,515.754456 300.389465,514.129883 299.372009,507.710052 
	C300.668701,507.566315 301.948395,507.396271 303.233368,507.289368 
	C304.723328,507.165405 306.239563,507.225891 307.706543,506.980377 
	C312.406158,506.193817 315.128021,503.183319 314.699585,499.396149 
	C314.295624,495.825226 310.655548,492.988312 306.418549,492.937958 
	C301.320831,492.877380 298.575745,495.979279 296.733124,500.216522 
	C294.708313,504.872955 295.911011,511.821564 299.161499,514.636169 
	C302.242676,517.304199 308.551544,517.803101 312.394501,515.682617 
	C314.292053,514.635559 314.292053,514.635559 312.355804,512.836243 
M249.476089,514.096252 
	C253.540558,510.180298 254.299164,505.458221 252.518234,500.325165 
	C251.104584,496.250641 248.178970,493.649750 243.812286,492.996246 
	C238.298462,492.171051 234.064682,494.582214 231.747009,499.739777 
	C229.536255,504.659424 230.760818,510.829102 234.658524,514.408813 
	C238.322327,517.773682 243.610779,517.846069 249.476089,514.096252 
M419.493713,508.980133 
	C420.869965,508.412048 422.201782,507.640259 423.633789,507.327789 
	C425.397614,506.942963 427.291931,507.141815 429.046265,506.731201 
	C432.635834,505.891083 435.120575,503.723083 434.891663,499.800812 
	C434.655579,495.755219 432.041077,493.678528 428.121307,493.113770 
	C422.164703,492.255585 418.117584,495.506012 416.337463,502.610657 
	C414.859222,508.510468 417.490967,514.338379 422.493866,516.243896 
	C427.144806,518.015320 431.780853,516.910889 435.095459,512.843079 
	C429.497101,513.043884 423.266815,517.218872 419.493713,508.980133 
M410.331360,512.520752 
	C407.923950,513.066101 405.538391,513.914368 403.104309,514.090027 
	C398.811401,514.399902 396.574951,512.140198 395.792816,507.628510 
	C399.296356,507.358521 402.127625,507.365021 404.870514,506.875885 
	C408.914368,506.154663 411.652557,503.919739 411.234192,499.387787 
	C410.844849,495.170593 407.880005,493.510681 404.088196,493.052887 
	C399.336182,492.479248 395.498688,495.008179 393.642120,499.777618 
	C391.290649,505.818481 392.645294,512.254028 396.891602,515.215027 
	C401.500244,518.428650 408.591095,517.294128 410.331360,512.520752 
M575.946594,507.257843 
	C577.106140,507.163635 578.296753,507.206055 579.419434,506.950134 
	C583.131958,506.103729 585.988281,504.171417 585.992737,499.995544 
	C585.997498,495.436249 582.674622,493.716949 578.843750,493.072144 
	C573.276672,492.135040 568.581055,496.324432 567.341675,503.013550 
	C566.093323,509.751434 569.264832,515.540833 574.966797,516.708435 
	C579.128052,517.560608 582.873718,516.751892 586.017700,513.390808 
	C580.303589,513.121155 573.195129,517.429016 570.371399,507.708160 
	C572.234375,507.532532 573.655212,507.398621 575.946594,507.257843 
M502.347107,507.858063 
	C504.484009,514.378296 507.870178,517.113281 513.678528,517.010559 
	C518.687134,516.921936 522.719116,513.670776 524.102173,508.605560 
	C525.712952,502.706299 523.984070,496.632263 518.729248,494.564026 
	C515.459778,493.277252 510.775879,493.318024 507.556610,494.698334 
	C502.666565,496.795044 501.646332,501.890472 502.347107,507.858063 
M448.474060,493.375397 
	C446.889191,493.278442 445.304321,493.181488 444.065063,493.105682 
	C443.358246,490.748016 442.852905,489.062439 442.347565,487.376831 
	C441.796936,487.430939 441.246277,487.485016 440.695618,487.539124 
	C440.519806,489.513336 440.198212,491.487366 440.195526,493.461853 
	C440.187378,499.455322 440.106415,505.460144 440.446777,511.438141 
	C440.636688,514.773865 442.647705,517.050232 446.314758,516.972412 
	C449.226929,516.910767 451.672089,516.038635 452.054626,512.003479 
	C451.020721,512.261963 450.393127,512.291504 449.897614,512.562500 
	C445.200409,515.131897 443.592316,514.316101 443.378754,509.100067 
	C443.269775,506.438080 443.490417,503.758270 443.302917,501.104858 
	C443.064026,497.724060 443.774994,495.593689 447.850983,496.076508 
	C449.943542,496.324371 451.304382,495.647583 448.474060,493.375397 
z"/>
<path fill="#BCFBAE" opacity="1.000000" stroke="none" 
	d="
M111.983284,381.078979 
	C104.273071,369.279633 96.758263,357.783722 89.243446,346.287781 
	C88.877609,346.373169 88.511772,346.458527 88.145927,346.543915 
	C87.537567,353.887665 86.873695,361.227325 86.333633,368.576111 
	C85.491920,380.029327 84.887482,391.503326 83.799461,402.932068 
	C83.603966,404.985535 82.009964,407.894165 80.292862,408.641510 
	C73.295929,411.686646 66.078529,414.293091 58.795044,416.595001 
	C49.341995,419.582611 48.303238,418.638458 49.083050,408.827637 
	C50.982292,384.933411 52.991627,361.047729 54.831242,337.148987 
	C55.877998,323.550354 56.774952,309.937897 57.496140,296.318756 
	C57.619099,293.996765 56.858246,291.457336 55.896809,289.288239 
	C54.418747,285.953583 52.480312,282.812897 50.610313,279.665314 
	C49.143280,277.195953 49.320702,275.508972 52.065662,273.996246 
	C60.954441,269.097809 69.749329,264.028717 78.569832,259.006805 
	C81.961456,257.075806 84.307648,257.706055 86.282516,261.294220 
	C100.395020,286.935516 114.625923,312.511627 128.829697,338.102661 
	C130.573700,341.244843 132.379990,344.352448 135.137833,347.344604 
	C135.231216,345.640320 135.404129,343.936127 135.405930,342.231750 
	C135.428925,320.408264 135.421677,298.584747 135.434875,276.761261 
	C135.440536,267.410065 136.333298,266.367188 145.269501,264.377960 
	C151.918259,262.897949 158.526810,261.238220 165.167252,259.719818 
	C171.064926,258.371246 171.748611,259.301453 171.228607,265.182373 
	C170.452148,273.963837 169.957947,282.786774 169.773224,291.601074 
	C169.054474,325.893585 168.436981,360.188721 167.982742,394.485565 
	C167.928482,398.581177 165.558212,400.573425 162.785034,402.293884 
	C154.169144,407.639221 145.406830,412.748596 136.169952,418.266968 
	C128.088104,405.841797 120.133392,393.612091 111.983284,381.078979 
z"/>
<path fill="#BDFBAE" opacity="1.000000" stroke="none" 
	d="
M711.715698,410.755798 
	C705.119995,425.530060 698.535706,439.894745 692.323425,454.418579 
	C690.698792,458.216858 689.185425,459.402802 684.945190,458.069214 
	C677.670776,455.781372 670.173645,454.138336 662.693909,452.592926 
	C658.902588,451.809570 657.986511,450.329865 659.529175,446.789734 
	C663.579041,437.496399 667.675476,428.211334 671.276367,418.741638 
	C672.364624,415.879700 672.743774,412.209534 672.003784,409.273499 
	C663.598145,375.920868 654.905396,342.640625 646.317322,309.333862 
	C645.763306,307.185303 645.335876,305.039276 648.490234,304.302765 
	C659.625549,301.702820 670.740295,299.014465 682.833679,296.127899 
	C686.960754,318.628998 691.127197,341.344910 695.484741,365.102814 
	C696.558044,363.086456 697.294495,362.036835 697.710022,360.872650 
	C704.861816,340.832642 712.078857,320.814636 719.010803,300.698486 
	C720.486328,296.416840 722.046875,295.620056 726.518555,297.115997 
	C734.846130,299.901733 743.507935,301.701508 752.055359,303.811615 
	C757.375427,305.124969 758.020569,305.994690 755.838501,310.948669 
	C745.782288,333.780151 735.625610,356.567383 725.523926,379.378876 
	C720.948425,389.711029 716.417236,400.062775 711.715698,410.755798 
z"/>
<path fill="#BCFBAE" opacity="1.000000" stroke="none" 
	d="
M290.853210,329.328583 
	C293.793854,344.468262 286.405090,354.339600 275.100586,361.958374 
	C262.033539,370.765106 247.347260,373.546844 231.786469,372.282837 
	C230.127563,372.148102 228.470215,371.981293 226.808685,371.899872 
	C226.342026,371.877045 225.863052,372.105347 225.400040,372.216003 
	C226.175400,380.842682 233.560562,387.010376 244.240662,388.032196 
	C255.887207,389.146545 266.650360,386.054626 277.061523,381.208191 
	C279.701416,379.979309 282.412354,378.902985 285.892273,377.413483 
	C285.892273,386.426117 285.973572,394.374847 285.791901,402.317535 
	C285.768524,403.338074 284.597961,404.760254 283.591370,405.268097 
	C256.441864,418.966522 224.887802,422.839081 200.913834,400.027710 
	C183.455582,383.416016 179.504547,356.875519 190.114120,332.971344 
	C201.834122,306.565338 231.090973,290.803406 257.824524,296.996460 
	C274.996185,300.974396 286.028442,311.834778 290.853210,329.328583 
M233.153809,329.655182 
	C228.387024,334.885956 225.762909,341.098938 223.915512,348.643250 
	C235.708893,346.477417 246.635162,344.609772 256.272400,338.660248 
	C261.966553,335.144958 261.705414,329.510620 255.949814,326.039917 
	C248.542999,321.573547 240.832214,322.647430 233.153809,329.655182 
z"/>
<path fill="#BDFBAE" opacity="1.000000" stroke="none" 
	d="
M619.564209,277.816742 
	C617.377625,286.850433 615.402039,295.566956 613.225830,305.168640 
	C622.086731,305.168640 629.855957,305.147247 637.625122,305.175751 
	C643.358887,305.196808 644.333252,306.489624 642.223450,311.604340 
	C640.068298,316.829468 637.589172,321.921661 635.462769,327.157715 
	C634.206726,330.250671 632.125610,331.416962 628.894897,331.308441 
	C624.735291,331.168762 620.560913,331.418030 616.405212,331.229370 
	C613.430969,331.094299 612.289734,332.273590 612.008606,335.181885 
	C610.103210,354.891357 607.996338,374.581482 606.132507,394.294708 
	C605.210327,404.048218 605.377075,404.051392 595.992188,407.233093 
	C587.961182,409.955811 579.942932,412.716095 571.917114,415.453949 
	C565.353943,417.692749 563.548584,416.434723 564.170410,409.627106 
	C566.425354,384.938568 568.793091,360.260406 571.101440,335.576721 
	C571.193481,334.592651 571.113220,333.592468 571.113220,332.305298 
	C563.311890,331.927490 555.494141,331.548889 546.264404,331.101898 
	C548.299927,327.462585 549.518250,325.203278 550.815979,322.990509 
	C551.825378,321.269287 552.957031,319.620270 553.994080,317.914673 
	C558.645386,310.264648 562.402954,301.238739 574.779236,305.934021 
	C575.896423,297.778076 576.725342,290.576019 577.895203,283.429810 
	C580.186096,269.435699 584.674622,256.534149 597.368042,248.340103 
	C607.662170,241.694870 619.238708,241.583832 630.655579,243.421402 
	C639.123901,244.784378 647.325623,247.815598 655.636597,250.137665 
	C658.924377,251.056259 659.723694,252.838669 658.110107,256.082092 
	C655.595337,261.137238 653.417236,266.363373 651.194092,271.558838 
	C649.855408,274.687408 648.079712,275.944641 644.587646,274.384094 
	C641.571289,273.036133 638.333984,272.086426 635.108826,271.321381 
	C627.926697,269.617737 623.947571,271.313904 619.564209,277.816742 
z"/>
<path fill="#BDFBAE" opacity="1.000000" stroke="none" 
	d="
M446.607239,344.612122 
	C445.678650,355.640961 444.398529,366.228516 444.193207,376.836914 
	C444.033966,385.064697 448.250092,388.191437 456.497559,386.854126 
	C460.562500,386.194977 464.534698,384.767914 468.440002,383.381744 
	C471.602509,382.259277 472.985870,383.066010 473.575317,386.386841 
	C474.504059,391.619202 475.756836,396.796204 476.954956,401.977570 
	C477.552277,404.560577 477.318420,406.683624 474.360168,407.461609 
	C463.134399,410.413849 452.050476,414.505280 440.630066,415.989441 
	C418.597321,418.852661 404.929382,406.444550 405.231049,384.199738 
	C405.429077,369.596527 407.300446,355.016144 408.417999,340.425201 
	C408.618134,337.812317 408.796753,335.197815 409.002716,332.342590 
	C401.813049,331.904663 395.013885,331.490509 388.214722,331.076385 
	C387.955719,330.487549 387.696716,329.898743 387.437714,329.309906 
	C392.463928,321.595856 397.271210,313.721405 402.703857,306.305084 
	C403.771393,304.847748 407.254974,305.160217 410.392487,304.493164 
	C411.216156,297.362366 412.185028,289.837585 412.929596,282.290649 
	C413.706665,274.413605 413.608917,274.389557 421.251984,272.669617 
	C431.131531,270.446442 441.013519,268.233765 450.905792,266.068268 
	C451.818848,265.868408 452.813599,266.041687 454.437592,266.041687 
	C453.196411,278.959747 451.976715,291.653931 450.678345,305.166779 
	C455.853699,305.166779 460.775482,305.165894 465.697296,305.167084 
	C469.193970,305.167938 472.691437,305.219879 476.187073,305.160889 
	C479.955475,305.097321 481.034088,306.943695 479.694275,310.223450 
	C477.180267,316.377502 474.732300,322.579956 471.743011,328.502930 
	C471.015198,329.944946 468.344208,331.004456 466.478638,331.155914 
	C461.846802,331.532013 457.158386,331.424225 452.504028,331.233856 
	C449.474426,331.109924 447.822968,331.896912 447.724854,335.256531 
	C447.637787,338.238220 447.072723,341.205963 446.607239,344.612122 
z"/>
<path fill="#BCFAAE" opacity="1.000000" stroke="none" 
	d="
M318.160461,307.152893 
	C332.596436,296.607727 347.898895,292.639221 364.961639,298.720062 
	C374.202545,302.013275 375.419434,303.692169 375.867310,313.439087 
	C376.096222,318.420135 376.529572,323.395050 376.618835,328.377228 
	C376.645630,329.871429 375.823486,331.380829 375.390259,332.883270 
	C374.130157,332.246246 372.785797,331.733917 371.625061,330.949829 
	C367.376984,328.080414 363.444092,324.600922 358.891815,322.375275 
	C355.797302,320.862335 351.859802,320.567383 348.312500,320.619995 
	C344.234222,320.680450 340.346130,322.084137 338.943146,326.652191 
	C337.564545,331.140839 339.328186,335.929138 343.507721,338.868408 
	C348.542694,342.409302 353.868317,345.557953 358.742615,349.300354 
	C363.724518,353.125336 369.128693,356.829529 372.913208,361.701233 
	C382.675140,374.267395 380.446991,392.469025 367.989502,403.022400 
	C351.008545,417.407745 331.600281,419.591095 310.828735,412.944305 
	C307.746277,411.957947 306.037811,410.240234 306.048492,406.423126 
	C306.071655,398.145844 305.401978,389.866608 304.956848,380.328857 
	C307.442352,381.837585 309.135345,382.622681 310.542236,383.761261 
	C316.661957,388.713837 323.588104,391.015106 331.427917,390.213989 
	C335.627625,389.784882 340.170715,389.174835 341.266724,384.157349 
	C342.268250,379.572418 338.936615,376.914795 335.558807,374.568634 
	C330.505981,371.059021 325.609558,367.305359 320.414337,364.023102 
	C301.793457,352.258850 298.808563,321.809509 318.160461,307.152893 
z"/>
<path fill="#BCFBAE" opacity="1.000000" stroke="none" 
	d="
M496.307251,317.227295 
	C497.910187,302.383820 495.461578,305.729645 509.153137,302.764740 
	C518.706970,300.695862 528.211304,298.398529 538.254333,296.084198 
	C538.345825,297.297241 538.611938,298.529236 538.503662,299.727356 
	C535.613220,331.698853 532.600098,363.659637 529.844849,395.642670 
	C529.384521,400.986542 527.429749,403.762604 522.027405,405.297272 
	C511.971130,408.154053 502.178711,411.937897 492.267365,415.309021 
	C491.054047,415.721680 489.784729,415.969849 487.472321,416.573242 
	C490.430634,383.131958 493.325684,350.405548 496.307251,317.227295 
z"/>
<path fill="#BCFAAE" opacity="1.000000" stroke="none" 
	d="
M538.235229,278.288208 
	C525.328857,280.939117 512.816345,283.484253 499.377838,286.217743 
	C500.073761,277.087585 500.700287,268.705597 501.361145,260.326324 
	C501.504883,258.503784 501.426971,256.552521 502.084686,254.914978 
	C502.669098,253.459976 503.932220,251.549149 505.238556,251.226227 
	C517.177856,248.274918 529.190796,245.621201 541.189392,242.912338 
	C541.631287,242.812576 542.146973,243.039337 542.997986,243.171234 
	C542.997986,245.750763 543.149231,248.328384 542.969421,250.882690 
	C542.443787,258.349579 541.915405,265.821655 541.083069,273.257568 
	C540.891418,274.969299 539.479431,276.544434 538.235229,278.288208 
z"/>
<path fill="#ADE6B2" opacity="1.000000" stroke="none" 
	d="
M261.842987,510.681122 
	C261.843231,512.747620 261.843231,514.368408 261.843231,516.177063 
	C258.828217,515.067261 257.849945,508.293823 258.155701,493.451965 
	C259.516785,494.331268 260.645294,495.060303 261.858978,495.844391 
	C266.250885,492.068268 270.694885,491.693817 274.744537,495.938171 
	C276.764862,494.889435 278.407684,493.616669 280.252350,493.160828 
	C285.065613,491.971466 288.779846,494.905212 289.109314,499.930725 
	C289.250519,502.084015 289.163605,504.252625 289.170563,506.414307 
	C289.177460,508.562103 289.172058,510.709930 289.172058,513.075439 
	C290.872894,513.599182 292.304016,514.039917 293.735168,514.480591 
	C293.767517,514.882202 293.799896,515.283813 293.832245,515.685425 
	C292.276184,515.928345 290.467773,516.766052 289.236389,516.243713 
	C288.051453,515.741028 286.881256,513.896362 286.729004,512.527405 
	C286.363525,509.241730 286.738525,505.881317 286.551575,502.565948 
	C286.375885,499.450043 286.482300,495.910309 281.862518,495.787506 
	C278.007690,495.685028 275.647766,498.349335 275.533264,503.038300 
	C275.452118,506.362305 275.566284,509.691803 275.451050,513.013916 
	C275.411560,514.152344 274.940308,515.275818 274.666290,516.406128 
	C274.167236,516.364136 273.668182,516.322083 273.169159,516.280090 
	C273.041626,513.637024 272.874084,510.995178 272.798157,508.350647 
	C272.726562,505.858459 272.908203,503.349884 272.692871,500.873322 
	C272.443542,498.005859 271.391113,495.530579 267.839996,495.861603 
	C264.598297,496.163849 261.995667,497.454681 261.882111,501.256470 
	C261.792816,504.247162 261.850403,507.242218 261.842987,510.681122 
z"/>
<path fill="#AAE3B0" opacity="1.000000" stroke="none" 
	d="
M560.885986,508.760315 
	C561.729065,511.157715 562.572632,513.095093 563.764221,515.831787 
	C563.682617,515.854980 562.007202,516.908203 561.142700,516.445740 
	C559.760010,515.705994 558.170166,514.054138 557.989807,512.621460 
	C557.535950,509.017914 557.869995,505.320251 557.794678,501.662262 
	C557.733948,498.713928 557.486816,495.716064 553.420776,495.830444 
	C549.564636,495.938843 547.090088,497.826263 546.988892,501.894806 
	C546.871094,506.629974 546.961426,511.370361 546.961426,516.108459 
	C546.431885,516.241516 545.902344,516.374512 545.372742,516.507568 
	C544.874756,515.468201 543.995911,514.446228 543.947266,513.386292 
	C543.772156,509.568451 543.919800,505.737152 543.862732,501.912201 
	C543.815796,498.766113 543.530029,495.560577 539.197815,495.852722 
	C535.378296,496.110260 533.063416,498.174469 533.036804,502.243652 
	C533.013916,505.736664 533.093872,509.231842 532.990173,512.721985 
	C532.953308,513.962646 532.509888,515.191284 532.252014,516.425415 
	C531.690308,516.369751 531.128601,516.314087 530.566833,516.258423 
	C530.187500,508.800964 529.808167,501.343475 529.490784,495.104462 
	C532.193481,494.520203 534.499451,494.208984 536.680420,493.508453 
	C540.416138,492.308502 543.535156,492.873901 546.112854,496.364044 
	C547.219788,495.560303 548.186523,494.717072 549.277649,494.090485 
	C554.190674,491.269073 559.264404,493.359283 560.306580,498.882294 
	C560.885254,501.948914 560.717712,505.156311 560.885986,508.760315 
z"/>
<path fill="#B9F1B8" opacity="1.000000" stroke="none" 
	d="
M484.266510,498.836487 
	C487.188232,498.836792 489.640991,498.836792 492.408783,498.836792 
	C492.651245,493.836121 492.865448,489.417633 493.079681,484.999146 
	C493.605225,485.029907 494.130768,485.060669 494.656311,485.091431 
	C494.656311,495.459167 494.656311,505.826935 494.656311,516.194702 
	C494.150452,516.236389 493.644562,516.278137 493.138702,516.319885 
	C492.904510,511.644897 492.670319,506.969940 492.415558,501.884766 
	C486.881775,501.884766 481.510620,501.884766 475.671997,501.884766 
	C475.456421,506.800232 475.247375,511.566467 475.038330,516.332703 
	C474.406128,516.316895 473.773895,516.301086 473.141693,516.285278 
	C473.141693,506.737061 473.141693,497.188843 473.141693,487.484192 
	C470.798248,487.310699 469.436035,487.209869 468.073853,487.109009 
	C467.940582,486.740723 467.807281,486.372437 467.674011,486.004120 
	C468.944092,485.439728 470.362823,484.226593 471.446594,484.475006 
	C472.802063,484.785675 474.141785,486.119415 474.990295,487.353790 
	C475.559906,488.182434 475.331360,489.604309 475.346863,490.762268 
	C475.467773,499.799500 474.216217,498.734467 484.266510,498.836487 
z"/>
<path fill="#A7DEAD" opacity="1.000000" stroke="none" 
	d="
M200.624786,484.321655 
	C204.605820,485.887146 204.223373,489.032623 204.243378,492.034332 
	C204.288025,498.733673 204.302124,498.735748 211.114777,498.748260 
	C214.237335,498.753998 217.359924,498.749237 221.482803,498.749237 
	C221.482803,493.813568 221.482803,489.410889 221.482803,485.008240 
	C224.729294,488.358795 224.700439,513.127747 221.472229,517.667236 
	C221.472229,511.662384 221.472229,506.923828 221.472229,501.970062 
	C215.281296,501.970062 210.073273,501.970062 203.947296,501.970062 
	C203.947296,506.978607 203.947296,511.627411 203.947296,516.276245 
	C203.331268,516.298096 202.715240,516.320007 202.099213,516.341858 
	C199.935867,511.975372 201.426758,507.078918 201.163208,502.469818 
	C200.889389,497.681244 201.102173,492.864838 201.102173,487.849609 
	C199.261383,487.581726 197.765198,487.364014 196.269012,487.146271 
	C196.155746,486.771698 196.042465,486.397125 195.929199,486.022522 
	C197.377243,485.411407 198.825272,484.800262 200.624786,484.321655 
z"/>
<path fill="#ABE2B2" opacity="1.000000" stroke="none" 
	d="
M365.247101,510.425262 
	C367.005432,506.705994 368.492065,502.693390 370.030426,498.700653 
	C370.770966,496.778595 371.609070,494.894104 372.402985,492.992615 
	C373.045837,492.914185 373.688660,492.835754 374.331512,492.757324 
	C376.350952,498.785706 378.370422,504.814087 380.660217,511.649536 
	C383.015656,504.892944 385.098633,498.917816 387.181641,492.942719 
	C387.579315,493.002838 387.976959,493.062988 388.374634,493.123108 
	C388.571106,493.775238 389.080750,494.522369 388.916199,495.065063 
	C386.989410,501.420013 385.014984,507.762329 382.899994,514.056519 
	C382.595734,514.961975 381.485596,515.596741 380.748413,516.356750 
	C380.000671,515.572815 378.908203,514.916321 378.563385,513.983459 
	C376.839508,509.319397 375.311737,504.582886 372.617889,499.585846 
	C370.657379,505.207428 368.696838,510.828979 366.736328,516.450500 
	C366.234253,516.530334 365.732178,516.610107 365.230072,516.689880 
	C360.864441,509.621796 360.208954,500.969666 356.728485,493.489441 
	C362.506012,497.513916 362.305328,504.563782 365.247101,510.425262 
z"/>
<path fill="#ADE3B2" opacity="1.000000" stroke="none" 
	d="
M338.970215,485.021240 
	C342.461792,485.041901 345.722046,484.829254 348.728760,485.602417 
	C349.804321,485.878967 350.901764,488.577545 350.808380,490.098053 
	C350.733917,491.309662 348.865356,492.411072 348.407837,492.901947 
	C347.251495,490.531982 346.171814,487.130432 345.528412,487.211029 
	C343.056641,487.520782 339.688782,488.304932 338.575989,490.101776 
	C336.767059,493.022461 339.352448,495.211151 342.119080,496.578857 
	C344.647369,497.828735 347.258148,498.961853 349.632538,500.462952 
	C355.026093,503.872955 355.415344,510.646515 350.532501,514.762695 
	C346.688263,518.003296 342.295135,518.263977 337.903687,516.298401 
	C334.974792,514.987427 332.207886,513.135498 332.407715,509.371765 
	C332.983246,508.824127 333.558777,508.276459 334.134308,507.728790 
	C335.007477,509.263977 335.589996,511.099792 336.808502,512.277710 
	C340.401733,515.751221 345.796539,515.731323 348.927643,512.522766 
	C352.054932,509.318146 351.585541,504.698669 347.727417,502.401825 
	C345.315308,500.965759 342.644287,499.970673 340.191406,498.595825 
	C333.785797,495.005585 333.281616,490.374359 338.970215,485.021240 
z"/>
<path fill="#ADE3B2" opacity="1.000000" stroke="none" 
	d="
M312.684906,512.746216 
	C314.292053,514.635559 314.292053,514.635559 312.394501,515.682617 
	C308.551544,517.803101 302.242676,517.304199 299.161499,514.636169 
	C295.911011,511.821564 294.708313,504.872955 296.733124,500.216522 
	C298.575745,495.979279 301.320831,492.877380 306.418549,492.937958 
	C310.655548,492.988312 314.295624,495.825226 314.699585,499.396149 
	C315.128021,503.183319 312.406158,506.193817 307.706543,506.980377 
	C306.239563,507.225891 304.723328,507.165405 303.233368,507.289368 
	C301.948395,507.396271 300.668701,507.566315 299.372009,507.710052 
	C300.389465,514.129883 304.764740,515.754456 312.684906,512.746216 
M311.812805,501.167603 
	C312.220520,496.729797 309.407959,495.718353 305.867310,495.840637 
	C301.595734,495.988159 299.234619,499.127991 299.067871,504.757324 
	C303.494568,504.922241 308.004883,505.797577 311.812805,501.167603 
z"/>
<path fill="#ABE2B2" opacity="1.000000" stroke="none" 
	d="
M249.202789,514.350220 
	C243.610779,517.846069 238.322327,517.773682 234.658524,514.408813 
	C230.760818,510.829102 229.536255,504.659424 231.747009,499.739777 
	C234.064682,494.582214 238.298462,492.171051 243.812286,492.996246 
	C248.178970,493.649750 251.104584,496.250641 252.518234,500.325165 
	C254.299164,505.458221 253.540558,510.180298 249.202789,514.350220 
M234.783600,499.647736 
	C233.268799,504.240631 232.568237,508.810364 236.770859,512.394836 
	C240.030579,515.175110 245.367905,514.699036 248.046310,511.725159 
	C251.060425,508.378601 250.982407,501.143982 247.897812,497.949799 
	C244.708084,494.646759 239.413666,495.050140 234.783600,499.647736 
z"/>
<path fill="#AAE3B0" opacity="1.000000" stroke="none" 
	d="
M419.600159,509.423462 
	C423.266815,517.218872 429.497101,513.043884 435.095459,512.843079 
	C431.780853,516.910889 427.144806,518.015320 422.493866,516.243896 
	C417.490967,514.338379 414.859222,508.510468 416.337463,502.610657 
	C418.117584,495.506012 422.164703,492.255585 428.121307,493.113770 
	C432.041077,493.678528 434.655579,495.755219 434.891663,499.800812 
	C435.120575,503.723083 432.635834,505.891083 429.046265,506.731201 
	C427.291931,507.141815 425.397614,506.942963 423.633789,507.327789 
	C422.201782,507.640259 420.869965,508.412048 419.600159,509.423462 
M422.682861,496.832581 
	C421.252777,499.223755 419.822693,501.614960 418.392578,504.006134 
	C418.739746,504.403107 419.086914,504.800049 419.434082,505.197021 
	C422.672180,504.796906 426.009888,504.736450 429.099579,503.830231 
	C430.342682,503.465607 431.837952,501.202881 431.766235,499.882874 
	C431.693390,498.541321 430.060547,496.685638 428.692047,496.173218 
	C427.170959,495.603607 425.176849,496.297058 422.682861,496.832581 
z"/>
<path fill="#ADE3B2" opacity="1.000000" stroke="none" 
	d="
M410.633240,512.744385 
	C408.591095,517.294128 401.500244,518.428650 396.891602,515.215027 
	C392.645294,512.254028 391.290649,505.818481 393.642120,499.777618 
	C395.498688,495.008179 399.336182,492.479248 404.088196,493.052887 
	C407.880005,493.510681 410.844849,495.170593 411.234192,499.387787 
	C411.652557,503.919739 408.914368,506.154663 404.870514,506.875885 
	C402.127625,507.365021 399.296356,507.358521 395.792816,507.628510 
	C396.574951,512.140198 398.811401,514.399902 403.104309,514.090027 
	C405.538391,513.914368 407.923950,513.066101 410.633240,512.744385 
M396.367279,500.372345 
	C396.109558,501.752289 395.851868,503.132233 395.443115,505.321106 
	C399.306732,504.816528 402.503143,504.766113 405.429291,503.851227 
	C406.753845,503.437103 408.542725,501.114594 408.330017,499.999420 
	C408.035950,498.457672 405.785919,495.934082 404.839630,496.126221 
	C402.023956,496.697968 399.436096,498.391541 396.367279,500.372345 
z"/>
<path fill="#ABE2B2" opacity="1.000000" stroke="none" 
	d="
M575.511292,507.261261 
	C573.655212,507.398621 572.234375,507.532532 570.371399,507.708160 
	C573.195129,517.429016 580.303589,513.121155 586.017700,513.390808 
	C582.873718,516.751892 579.128052,517.560608 574.966797,516.708435 
	C569.264832,515.540833 566.093323,509.751434 567.341675,503.013550 
	C568.581055,496.324432 573.276672,492.135040 578.843750,493.072144 
	C582.674622,493.716949 585.997498,495.436249 585.992737,499.995544 
	C585.988281,504.171417 583.131958,506.103729 579.419434,506.950134 
	C578.296753,507.206055 577.106140,507.163635 575.511292,507.261261 
M571.928894,504.968170 
	C574.708557,504.646454 577.615784,504.728516 580.235718,503.901031 
	C583.527405,502.861420 584.311096,498.138641 581.411011,496.984528 
	C579.150757,496.085052 575.384583,495.972076 573.751465,497.304169 
	C571.980713,498.748596 571.905334,502.271484 571.928894,504.968170 
z"/>
<path fill="#ADE3B2" opacity="1.000000" stroke="none" 
	d="
M502.260895,507.453003 
	C501.646332,501.890472 502.666565,496.795044 507.556610,494.698334 
	C510.775879,493.318024 515.459778,493.277252 518.729248,494.564026 
	C523.984070,496.632263 525.712952,502.706299 524.102173,508.605560 
	C522.719116,513.670776 518.687134,516.921936 513.678528,517.010559 
	C507.870178,517.113281 504.484009,514.378296 502.260895,507.453003 
M505.157471,502.121857 
	C504.650879,509.446716 506.813995,513.326843 511.821411,514.075378 
	C516.537048,514.780273 520.393555,512.227112 521.586975,507.610138 
	C522.794495,502.938599 520.618347,497.841858 516.726685,496.226990 
	C512.240540,494.365448 508.350098,496.116058 505.157471,502.121857 
z"/>
<path fill="#A7DEAD" opacity="1.000000" stroke="none" 
	d="
M448.835785,493.418335 
	C451.304382,495.647583 449.943542,496.324371 447.850983,496.076508 
	C443.774994,495.593689 443.064026,497.724060 443.302917,501.104858 
	C443.490417,503.758270 443.269775,506.438080 443.378754,509.100067 
	C443.592316,514.316101 445.200409,515.131897 449.897614,512.562500 
	C450.393127,512.291504 451.020721,512.261963 452.054626,512.003479 
	C451.672089,516.038635 449.226929,516.910767 446.314758,516.972412 
	C442.647705,517.050232 440.636688,514.773865 440.446777,511.438141 
	C440.106415,505.460144 440.187378,499.455322 440.195526,493.461853 
	C440.198212,491.487366 440.519806,489.513336 440.695618,487.539124 
	C441.246277,487.485016 441.796936,487.430939 442.347565,487.376831 
	C442.852905,489.062439 443.358246,490.748016 444.065063,493.105682 
	C445.304321,493.181488 446.889191,493.278442 448.835785,493.418335 
z"/>
<path fill="#2C5B59" opacity="1.000000" stroke="none" 
	d="
M233.404724,329.400024 
	C240.832214,322.647430 248.542999,321.573547 255.949814,326.039917 
	C261.705414,329.510620 261.966553,335.144958 256.272400,338.660248 
	C246.635162,344.609772 235.708893,346.477417 223.915512,348.643250 
	C225.762909,341.098938 228.387024,334.885956 233.404724,329.400024 
z"/>
<path fill="#2D5E55" opacity="1.000000" stroke="none" 
	d="
M311.667908,501.533844 
	C308.004883,505.797577 303.494568,504.922241 299.067871,504.757324 
	C299.234619,499.127991 301.595734,495.988159 305.867310,495.840637 
	C309.407959,495.718353 312.220520,496.729797 311.667908,501.533844 
z"/>
<path fill="#2B5A56" opacity="1.000000" stroke="none" 
	d="
M234.978149,499.283478 
	C239.413666,495.050140 244.708084,494.646759 247.897812,497.949799 
	C250.982407,501.143982 251.060425,508.378601 248.046310,511.725159 
	C245.367905,514.699036 240.030579,515.175110 236.770859,512.394836 
	C232.568237,508.810364 233.268799,504.240631 234.978149,499.283478 
z"/>
<path fill="#2D5E55" opacity="1.000000" stroke="none" 
	d="
M423.035767,496.636597 
	C425.176849,496.297058 427.170959,495.603607 428.692047,496.173218 
	C430.060547,496.685638 431.693390,498.541321 431.766235,499.882874 
	C431.837952,501.202881 430.342682,503.465607 429.099579,503.830231 
	C426.009888,504.736450 422.672180,504.796906 419.434082,505.197021 
	C419.086914,504.800049 418.739746,504.403107 418.392578,504.006134 
	C419.822693,501.614960 421.252777,499.223755 423.035767,496.636597 
z"/>
<path fill="#2D5E55" opacity="1.000000" stroke="none" 
	d="
M396.563232,500.009552 
	C399.436096,498.391541 402.023956,496.697968 404.839630,496.126221 
	C405.785919,495.934082 408.035950,498.457672 408.330017,499.999420 
	C408.542725,501.114594 406.753845,503.437103 405.429291,503.851227 
	C402.503143,504.766113 399.306732,504.816528 395.443115,505.321106 
	C395.851868,503.132233 396.109558,501.752289 396.563232,500.009552 
z"/>
<path fill="#2D5E55" opacity="1.000000" stroke="none" 
	d="
M571.509766,504.928101 
	C571.905334,502.271484 571.980713,498.748596 573.751465,497.304169 
	C575.384583,495.972076 579.150757,496.085052 581.411011,496.984528 
	C584.311096,498.138641 583.527405,502.861420 580.235718,503.901031 
	C577.615784,504.728516 574.708557,504.646454 571.509766,504.928101 
z"/>
<path fill="#2B5A56" opacity="1.000000" stroke="none" 
	d="
M505.268494,501.727478 
	C508.350098,496.116058 512.240540,494.365448 516.726685,496.226990 
	C520.618347,497.841858 522.794495,502.938599 521.586975,507.610138 
	C520.393555,512.227112 516.537048,514.780273 511.821411,514.075378 
	C506.813995,513.326843 504.650879,509.446716 505.268494,501.727478 
z"/>
</svg>