<svg version="1.1" id="Layer_1" xmlns="http://www.w3.org/2000/svg" xmlns:xlink="http://www.w3.org/1999/xlink" x="0px" y="0px"
	 width="100%" viewBox="0 0 782 783" enable-background="new 0 0 782 783" xml:space="preserve">
<path fill="#28555A" opacity="1.000000" stroke="none" 
	d="
M358.000000,1.000003 
	C380.354218,1.000000 402.708466,1.000000 425.562897,1.409814 
	C427.078857,2.206913 428.064392,2.789809 429.114899,2.952184 
	C445.274933,5.449955 461.620026,7.073584 477.574707,10.512182 
	C515.720093,18.733402 551.627808,33.073116 585.621521,52.248760 
	C615.244446,68.958855 641.934265,89.576103 666.411499,113.062996 
	C673.934570,120.281670 680.976624,128.092758 687.543701,136.195984 
	C698.161926,149.297989 708.920654,162.383469 718.334595,176.342865 
	C735.423401,201.682968 748.992188,228.908615 759.487122,257.709503 
	C770.363342,287.556671 777.669128,318.149170 781.082642,349.709534 
	C781.207275,350.862000 782.338074,351.905640 783.000000,353.000000 
	C783.000000,379.020905 783.000000,405.041779 782.592041,431.559784 
	C781.465576,435.861145 780.525208,439.638794 780.065186,443.474030 
	C777.398682,465.706696 772.571777,487.489990 765.859131,508.808136 
	C757.130310,536.529480 745.547302,563.013184 731.018372,588.266968 
	C714.137817,617.608215 693.849121,644.359436 669.971191,668.175415 
	C656.635559,681.476501 641.954224,693.546814 627.112854,705.195251 
	C595.961609,729.644653 561.135376,747.645447 523.965637,761.058716 
	C493.179535,772.168396 461.476196,779.397644 428.794128,782.102295 
	C427.817108,782.183105 426.929352,783.343140 426.000000,784.000000 
	C403.645782,784.000000 381.291534,784.000000 358.437073,783.590210 
	C356.921204,782.793091 355.935822,782.210205 354.885406,782.047852 
	C338.725342,779.550049 322.380249,777.926575 306.425568,774.487854 
	C268.280182,766.266541 232.372375,751.927002 198.378632,732.751282 
	C168.755692,716.041199 142.065811,695.424011 117.588493,671.937134 
	C110.065437,664.718445 103.023483,656.907349 96.456383,648.804138 
	C85.838112,635.702148 75.079247,622.616638 65.665443,608.657227 
	C48.576801,583.317017 35.007797,556.091492 24.512936,527.290527 
	C13.636829,497.443298 6.330818,466.850830 2.917255,435.290466 
	C2.792605,434.138000 1.661871,433.094360 1.000003,432.000000 
	C1.000000,405.979095 1.000000,379.958221 1.408001,353.440216 
	C2.534477,349.138947 3.474883,345.361420 3.934832,341.526245 
	C6.601197,319.293549 11.428149,297.510284 18.140793,276.192078 
	C26.869661,248.470703 38.452595,221.987015 52.981499,196.733200 
	C69.862007,167.391907 90.150665,140.640701 114.028648,116.824646 
	C127.364296,103.523590 142.045654,91.453316 156.887024,79.804893 
	C188.038315,55.355392 222.864609,37.354706 260.034302,23.941296 
	C290.820465,12.831510 322.523865,5.602582 355.205872,2.897715 
	C356.182892,2.816854 357.070648,1.656864 358.000000,1.000003 
M153.047577,401.497009 
	C154.328522,399.160645 156.672287,396.850464 156.730606,394.483978 
	C157.575790,360.197723 158.042297,325.902344 158.775421,291.612946 
	C158.967300,282.637360 159.571381,273.658295 160.348068,264.712219 
	C160.796692,259.544952 159.880402,258.397614 154.661438,259.588348 
	C147.858276,261.140533 141.091446,262.853455 134.281616,264.374695 
	C125.361420,266.367371 124.440636,267.438873 124.435204,276.750427 
	C124.422485,298.572357 124.430641,320.394318 124.408920,342.216248 
	C124.407219,343.923767 124.238823,345.631073 124.077240,348.665253 
	C122.846245,346.788300 122.382568,346.171265 122.011627,345.502777 
	C106.680725,317.875854 91.354904,290.246094 76.037239,262.611816 
	C72.980522,257.097290 71.848885,256.693176 66.296875,259.753601 
	C58.865654,263.849854 51.469315,268.011597 44.113640,272.241943 
	C37.573044,276.003540 37.732914,275.995422 41.264751,282.721924 
	C43.310978,286.619019 46.307896,290.748138 46.371662,294.812134 
	C46.535526,305.255188 45.406010,315.728119 44.606571,326.174835 
	C42.422268,354.718353 40.105129,383.251678 37.928463,411.795746 
	C37.466923,417.848206 38.974533,419.124786 44.861019,417.280121 
	C53.098042,414.698883 61.288136,411.899170 69.276382,408.647705 
	C70.984627,407.952393 72.599106,405.004700 72.795990,402.954376 
	C73.877464,391.692444 74.470146,380.384338 75.300011,369.097168 
	C75.852859,361.577728 76.521576,354.066833 77.138428,346.552094 
	C77.510155,346.460388 77.881874,346.368683 78.253593,346.276947 
	C93.814079,370.154602 109.374565,394.032257 125.169823,418.270172 
	C134.529343,412.666809 143.491760,407.301178 153.047577,401.497009 
M745.606873,309.010132 
	C746.871521,305.145660 744.237976,304.577576 741.451111,303.883423 
	C732.417786,301.633118 723.324585,299.553406 714.442627,296.800751 
	C711.033203,295.744110 709.674255,296.188629 708.538818,299.430420 
	C703.039795,315.129639 697.423523,330.787933 691.811401,346.447327 
	C689.666626,352.431976 687.422180,358.380981 685.223145,364.346222 
	C684.909058,364.248962 684.594971,364.151733 684.280884,364.054504 
	C680.131287,341.389191 675.981628,318.723907 671.842651,296.116577 
	C659.811157,298.993774 648.502930,301.576599 637.307983,304.581299 
	C636.297302,304.852509 635.150452,308.063782 635.524536,309.540436 
	C644.018250,343.068512 652.771057,376.530945 661.261780,410.059723 
	C661.895691,412.562988 661.549438,415.718292 660.590759,418.149231 
	C656.991455,427.275787 652.842773,436.183838 649.110657,445.260406 
	C646.677795,451.177124 647.102173,451.534088 653.095886,452.864471 
	C660.235474,454.449188 667.410278,455.999969 674.380554,458.172760 
	C678.203979,459.364594 679.612488,458.312164 681.095154,454.912659 
	C690.473083,433.410797 700.078918,412.008453 709.577271,390.559052 
	C721.504639,363.624451 733.401062,336.676178 745.606873,309.010132 
M225.681168,386.076691 
	C219.508987,383.478943 215.082474,379.432404 213.980484,371.792877 
	C216.604645,371.992065 218.874573,372.190155 221.147995,372.332855 
	C239.445648,373.481293 256.244324,369.654633 270.251282,357.103333 
	C276.981110,351.072906 281.388763,343.542175 280.540863,334.307190 
	C278.861206,316.012756 265.187531,301.031616 247.285126,296.999268 
	C220.419312,290.947937 191.427963,306.120087 179.306870,332.574585 
	C168.412842,356.350983 172.347656,383.349365 189.960464,400.075714 
	C213.992416,422.898163 245.670258,418.909454 272.651215,405.216431 
	C273.643982,404.712585 274.765594,403.267517 274.788635,402.237915 
	C274.965820,394.312653 274.886108,386.381683 274.886108,377.312592 
	C271.176483,378.959229 268.368195,380.223022 265.546173,381.455383 
	C252.988144,386.939514 240.225037,390.810303 225.681168,386.076691 
M547.919495,310.339935 
	C543.856750,316.790802 539.794006,323.241638 535.731201,329.692505 
	C536.151062,330.296600 536.570862,330.900726 536.990723,331.504822 
	C544.693481,331.504822 552.396179,331.504822 560.117371,331.504822 
	C560.117371,333.552399 560.196899,334.547791 560.105713,335.527283 
	C557.792236,360.376831 555.419495,385.220947 553.162231,410.075531 
	C552.610657,416.149109 554.621277,417.618378 560.450378,415.660004 
	C568.802368,412.854034 577.003967,409.516357 585.490051,407.219452 
	C592.520325,405.316467 594.779602,401.454071 595.291077,394.318726 
	C596.706177,374.576477 599.099304,354.905273 601.005920,335.196320 
	C601.285828,332.302856 602.399536,331.084534 605.389038,331.228882 
	C609.377319,331.421448 613.390625,331.113190 617.377136,331.323608 
	C621.028992,331.516296 623.328857,330.199768 624.695923,326.731934 
	C626.585144,321.939575 628.804688,317.278473 630.819275,312.534149 
	C633.464722,306.303802 632.742737,305.185883 626.142944,305.173157 
	C618.529480,305.158508 610.916016,305.169769 602.687500,305.169769 
	C604.077759,297.394775 604.934570,290.273285 606.678040,283.375885 
	C609.587830,271.864746 615.803406,268.652313 627.215698,272.113007 
	C629.442322,272.788208 631.703491,273.451233 633.796387,274.441925 
	C637.010376,275.963470 638.793030,274.741638 640.067993,271.812164 
	C642.323242,266.630371 644.488159,261.399109 647.004333,256.344604 
	C648.679443,252.979477 648.056763,251.043152 644.435730,250.054291 
	C636.111511,247.780991 627.912842,244.728851 619.442322,243.388794 
	C608.196838,241.609726 596.779907,241.735870 586.602173,248.189133 
	C573.828857,256.288147 569.275635,269.173248 566.926758,283.154144 
	C565.722412,290.322235 564.946899,297.562378 563.998474,304.614868 
	C558.502869,306.514679 551.444031,302.157227 547.919495,310.339935 
M440.931610,331.282379 
	C445.764923,331.280731 450.624878,331.571808 455.418671,331.135712 
	C457.381073,330.957184 460.108917,329.672852 460.921967,328.087921 
	C463.875763,322.329926 466.227875,316.256897 468.682892,310.252014 
	C470.018585,306.984955 468.999084,305.108185 465.206879,305.164307 
	C461.541107,305.218597 457.873840,305.170532 454.207214,305.169586 
	C449.446960,305.168365 444.686707,305.169281 439.673859,305.169281 
	C440.974945,291.636139 442.196228,278.932709 443.434326,266.054626 
	C441.776123,266.054626 440.776825,265.883179 439.856934,266.081055 
	C430.271362,268.142944 420.695404,270.250153 411.123108,272.373230 
	C402.629150,274.257141 402.739655,274.283356 401.900452,282.884521 
	C401.180908,290.259766 400.179169,297.607452 399.233276,305.545959 
	C392.733337,303.531799 390.181763,307.443604 387.689484,311.563171 
	C385.449707,315.265381 383.062103,318.877869 380.790466,322.561249 
	C379.362579,324.876556 378.028381,327.249695 375.831573,330.996338 
	C384.120911,331.507599 390.938965,331.928131 398.038757,332.366028 
	C397.884949,334.666443 397.770630,336.645752 397.617645,338.622070 
	C396.435852,353.889648 394.447510,369.146332 394.249847,384.426331 
	C393.964661,406.472015 407.699921,418.865967 429.411743,416.003326 
	C440.846313,414.495667 451.952637,410.476074 463.193787,407.539459 
	C466.013763,406.802734 466.631348,404.876129 465.983765,402.149048 
	C464.715668,396.808807 463.492706,391.450806 462.504364,386.053802 
	C461.919006,382.857391 460.403778,382.362183 457.586884,383.340424 
	C453.819733,384.648682 450.033417,386.068878 446.135071,386.798309 
	C437.412262,388.430389 432.814819,385.243103 433.207886,376.467957 
	C433.846893,362.201691 435.598938,347.982178 437.083496,333.764069 
	C437.179169,332.847656 439.004395,332.111877 440.931610,331.282379 
M332.453979,415.025635 
	C341.642975,413.306152 349.808319,409.522827 356.842957,403.272186 
	C369.204285,392.288422 371.765076,374.084259 361.795074,361.525391 
	C357.856812,356.564545 352.273102,352.828796 347.150055,348.912720 
	C342.135895,345.079773 336.698212,341.806213 331.552673,338.138123 
	C327.666809,335.368011 327.078979,331.226166 327.921722,326.952728 
	C328.757568,322.714478 332.252655,320.913910 336.026276,320.833801 
	C340.056305,320.748260 344.495392,320.887512 348.055908,322.487000 
	C352.647186,324.549500 356.512634,328.204956 360.759094,331.073059 
	C361.894562,331.839935 363.279327,332.237701 364.549652,332.804901 
	C364.931854,331.433929 365.666534,330.054413 365.633484,328.693512 
	C365.508575,323.545868 365.098755,318.405884 364.861542,313.260010 
	C364.428589,303.870178 363.116150,302.083038 354.272400,298.815918 
	C338.848083,293.117767 324.548950,295.980652 310.935730,304.390350 
	C286.932465,319.218689 290.297455,351.161987 308.560883,363.375122 
	C314.224823,367.162659 319.802948,371.083099 325.335693,375.060486 
	C328.374664,377.245178 331.173218,379.918915 330.332184,384.083832 
	C329.404938,388.675751 325.381897,389.583313 321.522583,390.105865 
	C313.544220,391.186066 306.377808,389.105286 300.012085,384.151520 
	C298.436798,382.925598 296.670380,381.945282 293.960175,380.180176 
	C294.396881,389.626068 295.101868,397.720184 295.013519,405.805634 
	C294.965179,410.234253 296.992950,412.047638 300.648132,413.268463 
	C310.809021,416.662231 321.105469,417.500092 332.453979,415.025635 
M521.109802,369.743622 
	C523.367920,345.293793 525.626099,320.843994 527.887268,296.361389 
	C526.646179,296.174408 526.135010,295.952423 525.697632,296.052643 
	C513.873657,298.761017 502.082520,301.620270 490.223785,304.164825 
	C486.766968,304.906555 486.201996,307.050110 485.947662,309.880890 
	C483.402679,338.208008 480.801605,366.530090 478.284760,394.859680 
	C477.661407,401.875824 477.285767,408.913940 476.801544,415.866119 
	C477.903931,416.030701 478.269135,416.202393 478.545593,416.109680 
	C490.829956,411.989685 503.137634,407.933502 515.337463,403.575775 
	C516.604919,403.123047 517.859314,400.941559 518.045532,399.429840 
	C519.224487,389.861389 520.100708,380.255615 521.109802,369.743622 
M495.422211,250.896698 
	C492.368103,251.003937 491.097168,252.610275 490.881287,255.637756 
	C490.313873,263.596527 489.502716,271.537628 488.868835,279.492157 
	C488.707428,281.517792 488.844635,283.567200 488.844635,286.126526 
	C501.893280,283.477173 514.281067,281.092041 526.574524,278.292847 
	C528.027344,277.962067 529.773071,275.470245 529.997620,273.794556 
	C530.924316,266.879120 531.356689,259.895142 531.888672,252.930115 
	C532.135193,249.703064 532.193481,246.461655 532.350342,242.930557 
	C519.833984,245.622284 508.028839,248.161072 495.422211,250.896698 
M264.508087,507.428711 
	C264.511597,505.599487 264.398224,503.761017 264.542694,501.942993 
	C264.852631,498.042816 266.966644,495.849762 270.963013,495.800446 
	C274.969482,495.750977 275.339691,498.848358 275.536072,501.668030 
	C275.778137,505.143372 275.340729,508.677063 275.726532,512.126343 
	C275.896088,513.642395 277.067993,515.574951 278.352814,516.273254 
	C279.411957,516.848938 281.308380,515.884277 282.833740,515.602173 
	C282.784821,515.194702 282.735901,514.787170 282.686981,514.379700 
	C281.353821,514.026733 280.020660,513.673767 278.150146,513.178589 
	C278.150146,508.921387 278.273987,504.620514 278.120300,500.329529 
	C277.904816,494.313416 272.525330,491.107483 267.277557,493.799957 
	C266.131989,494.387756 265.157654,495.309326 264.152863,496.041901 
	C258.475159,491.895996 256.890228,491.879211 250.744339,495.749237 
	C249.597458,495.014038 248.476151,494.295258 247.017120,493.359985 
	C247.295273,497.934540 247.682358,501.821838 247.738342,505.713928 
	C247.874115,515.151917 247.812027,515.152832 250.832886,516.043213 
	C250.832886,511.626953 250.797409,507.332397 250.842377,503.038666 
	C250.892029,498.299530 253.076248,495.733337 257.049103,495.845245 
	C261.974304,495.984039 261.641846,499.750061 261.767853,503.053650 
	C261.875549,505.876709 261.730347,508.708832 261.811676,511.533630 
	C261.858093,513.145569 262.134003,514.750916 262.306610,516.359192 
	C262.909363,516.333679 263.512115,516.308167 264.114868,516.282654 
	C264.246216,513.637817 264.377563,510.993011 264.508087,507.428711 
M532.406494,498.483551 
	C532.561951,503.458344 532.627747,508.438965 532.948608,513.403076 
	C533.012756,514.395569 534.049805,515.325134 534.638245,516.283752 
	C535.076782,515.357361 535.859741,514.443542 535.893982,513.502441 
	C536.039124,509.511749 535.797058,505.504028 536.013428,501.519714 
	C536.219116,497.731232 538.678345,495.968811 542.307129,495.825165 
	C546.362549,495.664642 546.736206,498.566620 546.795288,501.557037 
	C546.867615,505.218536 546.539490,508.918030 546.983582,512.527405 
	C547.162292,513.980042 548.691650,515.666016 550.061279,516.428406 
	C550.934814,516.914551 552.643005,515.900879 553.976990,515.559692 
	C554.082458,515.142578 554.187927,514.725464 554.293396,514.308350 
	C550.017761,514.264343 549.675720,511.880310 549.813721,508.784149 
	C549.960693,505.484833 549.892212,502.097931 549.302307,498.861450 
	C548.335022,493.553894 543.437134,491.385742 538.682373,493.890137 
	C537.432739,494.548279 536.334656,495.494202 535.236450,496.259583 
	C530.494568,491.902618 527.955872,491.810089 522.187439,495.599152 
	C521.047546,494.923340 519.878662,494.230377 518.398682,493.352966 
	C518.812439,501.368073 519.197510,508.827667 519.582581,516.287231 
	C520.160767,516.319031 520.738953,516.350769 521.317139,516.382568 
	C521.552185,515.127747 521.956787,513.877380 521.990173,512.617188 
	C522.087097,508.956787 521.607605,505.219971 522.211487,501.658478 
	C522.541504,499.712402 524.262390,497.241150 525.989380,496.516754 
	C527.573059,495.852448 530.007263,497.216064 532.406494,498.483551 
M210.119659,494.514038 
	C209.554443,495.883728 209.057556,498.400818 208.413040,498.439270 
	C203.793579,498.714386 199.004944,499.064423 194.602737,498.006378 
	C193.512497,497.744354 193.642044,492.396637 193.217575,489.385712 
	C193.148117,488.892914 193.299255,488.228729 193.030396,487.928711 
	C191.871872,486.635681 190.772324,484.840485 189.305756,484.412689 
	C188.097580,484.060272 186.403351,485.374115 184.924545,485.949493 
	C185.019989,486.333221 185.115433,486.716949 185.210876,487.100677 
	C186.712311,487.322571 188.213745,487.544434 189.611359,487.750977 
	C189.793808,488.301025 189.986908,488.614288 189.988968,488.928772 
	C190.040024,496.738525 190.010406,504.549622 190.161163,512.357239 
	C190.188248,513.759888 190.944489,515.148376 191.364090,516.543396 
	C191.997879,516.427429 192.631683,516.311462 193.265472,516.195496 
	C193.265472,512.463562 193.059387,508.713501 193.385696,505.010315 
	C193.489334,503.834320 194.945724,501.895782 195.894974,501.825867 
	C200.452942,501.490204 205.049210,501.675110 210.381836,501.675110 
	C210.381836,506.983643 210.381836,511.616486 210.381836,516.940063 
	C213.780212,513.694336 213.905319,488.098358 210.118790,483.810333 
	C210.118790,487.910095 210.118790,490.729492 210.119659,494.514038 
M375.603271,494.475250 
	C373.728394,499.930817 371.853516,505.386414 369.677887,511.717072 
	C367.367432,504.823883 365.346161,498.793549 363.324921,492.763184 
	C362.625244,492.825745 361.925537,492.888306 361.225861,492.950867 
	C359.109009,498.912140 356.992126,504.873444 354.751343,511.183746 
	C351.165619,505.193604 351.670532,497.662323 346.008057,493.473969 
	C347.702332,500.126892 349.858368,506.507965 352.173798,512.830627 
	C352.640717,514.105652 353.711884,515.159485 354.504456,516.315247 
	C355.387909,515.080444 356.574890,513.961487 357.098328,512.589355 
	C358.718842,508.341309 360.086761,503.996857 361.552795,499.689850 
	C364.259613,504.483673 365.759460,509.168182 367.501617,513.760742 
	C367.891418,514.788391 369.130524,515.493958 369.978668,516.347778 
	C370.660950,515.515869 371.653503,514.788513 371.974945,513.834900 
	C373.991364,507.852966 375.898285,501.832886 377.747620,495.796661 
	C378.235504,494.204163 378.083679,494.157654 375.603271,494.475250 
M469.637451,498.831757 
	C465.516510,499.474609 463.803253,497.772186 464.326965,493.601440 
	C464.532104,491.967896 464.464294,490.264862 464.269928,488.623199 
	C463.775208,484.445221 460.779724,483.154297 457.238495,485.559021 
	C456.979553,485.734833 457.079437,486.439026 456.970062,487.188049 
	C458.496063,487.269958 459.870819,487.343750 462.226990,487.470184 
	C462.226990,497.223236 462.226990,506.740082 462.226990,516.256897 
	C462.896881,516.247314 463.566803,516.237671 464.236694,516.228088 
	C464.236694,511.469727 464.236694,506.711365 464.236694,501.931091 
	C470.629059,501.931091 476.000458,501.931091 482.390015,501.931091 
	C482.390015,507.041504 482.390015,511.689056 482.390015,516.336609 
	C483.032471,516.281677 483.674927,516.226746 484.317383,516.171814 
	C484.320374,505.806335 484.491058,495.437500 483.287048,485.037048 
	C482.131042,486.009552 481.786591,487.016663 481.741272,488.037018 
	C481.261261,498.846710 481.274353,498.847290 469.637451,498.831757 
M340.014771,489.349823 
	C339.183258,484.709839 335.728638,483.762512 331.852722,483.912354 
	C328.012146,484.060791 325.080353,486.125763 324.171570,489.892426 
	C323.223541,493.821686 325.384247,496.571747 328.801605,498.353149 
	C331.297272,499.654083 333.897888,500.764984 336.336121,502.162384 
	C341.239990,504.972839 341.225250,510.933472 336.294556,513.710876 
	C332.266663,515.979736 328.525970,515.045410 325.422333,511.918243 
	C324.343506,510.831177 323.919983,509.093750 323.197144,507.653412 
	C322.368622,508.378998 321.540100,509.104584 320.711578,509.830200 
	C322.064728,511.593201 323.139038,513.703918 324.822906,515.054565 
	C330.036896,519.236938 338.150940,517.861450 341.508057,512.484314 
	C344.726227,507.329895 342.798920,502.557648 336.003632,498.957886 
	C333.804321,497.792816 331.248199,497.068695 329.439575,495.478394 
	C328.177734,494.368896 327.189178,492.022064 327.423645,490.425385 
	C327.617432,489.105835 329.599518,487.512573 331.107666,487.024506 
	C335.367554,485.645813 337.084351,487.781555 336.870361,493.529755 
	C337.918518,492.372955 338.966675,491.216156 340.014771,489.349823 
M288.674347,515.011719 
	C295.229431,518.285034 300.565155,517.589050 303.491394,512.697510 
	C297.515472,513.732483 290.948608,516.840698 287.596893,507.794250 
	C291.584839,507.388763 295.138428,507.751678 297.995026,506.510498 
	C300.328705,505.496552 303.190582,502.649170 303.321533,500.464966 
	C303.454742,498.242828 301.038055,494.831238 298.841461,493.732269 
	C294.865509,491.743073 290.697449,492.847321 287.773499,496.662201 
	C283.605927,502.099640 283.728638,508.559143 288.674347,515.011719 
M226.605682,516.260498 
	C227.740387,516.501770 228.864746,516.866943 230.011597,516.962708 
	C234.835052,517.365356 238.496643,515.301819 240.789536,511.171722 
	C243.251114,506.737732 242.967865,502.170197 240.305023,497.876587 
	C237.725739,493.717682 233.714157,492.419800 229.081619,493.015076 
	C224.197174,493.642761 221.477432,496.936157 220.138031,501.340881 
	C218.357330,507.196869 220.322388,511.890411 226.605682,516.260498 
M386.528687,494.778992 
	C381.132904,498.754120 380.905975,504.414703 382.193573,510.085266 
	C383.165710,514.366394 386.664581,516.653503 391.040436,516.901062 
	C394.550842,517.099731 398.225739,517.103394 400.410309,512.892334 
	C387.516632,514.654785 386.108887,514.172302 385.306641,507.717529 
	C388.559723,507.349182 391.877106,507.248596 395.058716,506.539093 
	C398.514984,505.768280 401.065796,503.197784 400.062927,499.705231 
	C399.362427,497.265594 397.015717,494.552460 394.711609,493.544098 
	C392.690826,492.659668 389.705811,493.978455 386.528687,494.778992 
M417.925049,493.230408 
	C410.745605,492.693420 407.008575,495.522888 405.281891,502.803101 
	C403.933929,508.486481 406.488007,514.215454 411.232544,516.151001 
	C416.102234,518.137634 421.304260,516.856628 423.832764,512.730774 
	C417.954346,513.543579 411.270874,517.091370 407.967590,507.728973 
	C411.441986,507.443573 414.212524,507.358429 416.936401,506.956757 
	C420.462921,506.436737 423.395782,504.851471 423.846832,500.914978 
	C424.284576,497.094727 422.271759,494.647522 417.925049,493.230408 
M566.637512,507.158478 
	C570.637573,506.936249 574.284790,505.395874 574.722839,501.262299 
	C574.955322,499.068848 573.166443,495.834961 571.278687,494.421570 
	C567.754639,491.783020 563.755066,492.468140 560.320496,495.433594 
	C555.972717,499.187439 554.718933,507.536896 557.809998,512.366272 
	C561.559570,518.224731 571.348572,518.703186 574.726807,513.193176 
	C560.731567,512.973145 560.731567,512.973145 559.928162,507.497101 
	C561.912598,507.407318 563.852966,507.319519 566.637512,507.158478 
M503.294037,516.980164 
	C510.742249,515.497742 514.480469,510.400574 513.501953,503.061310 
	C512.622620,496.465790 507.507843,492.325470 501.020905,492.958069 
	C495.275360,493.518372 491.161835,498.334991 490.998749,504.693268 
	C490.817993,511.740753 494.846191,516.066833 503.294037,516.980164 
M440.541229,512.290039 
	C432.864960,515.247131 432.380798,514.873169 432.341736,505.955505 
	C432.341034,505.789154 432.340210,505.622833 432.339569,505.456482 
	C432.307983,497.380798 432.307983,497.380798 439.419037,494.298309 
	C437.290894,493.795074 435.162750,493.291809 433.030090,492.791901 
	C432.445984,490.983582 431.861847,489.175232 431.277740,487.366882 
	C430.628479,487.457275 429.979248,487.547668 429.329987,487.638062 
	C429.509308,496.519531 427.787048,505.450317 430.528137,514.223206 
	C430.946899,515.563477 434.166321,517.029358 435.780762,516.735596 
	C437.688232,516.388428 439.259308,514.192871 440.541229,512.290039 
z"/>
<path fill="#000000" opacity="1.000000" stroke="none" 
	d="
M357.531342,1.000003 
	C357.070648,1.656864 356.182892,2.816854 355.205872,2.897715 
	C322.523865,5.602582 290.820465,12.831510 260.034302,23.941296 
	C222.864609,37.354706 188.038315,55.355392 156.887024,79.804893 
	C142.045654,91.453316 127.364296,103.523590 114.028648,116.824646 
	C90.150665,140.640701 69.862007,167.391907 52.981499,196.733200 
	C38.452595,221.987015 26.869661,248.470703 18.140793,276.192078 
	C11.428149,297.510284 6.601197,319.293549 3.934832,341.526245 
	C3.474883,345.361420 2.534477,349.138947 1.408001,352.971558 
	C1.000000,235.739075 1.000000,118.478157 1.000000,1.000000 
	C119.687469,1.000000 238.375076,1.000000 357.531342,1.000003 
z"/>
<path fill="#000000" opacity="1.000000" stroke="none" 
	d="
M783.000000,352.531372 
	C782.338074,351.905640 781.207275,350.862000 781.082642,349.709534 
	C777.669128,318.149170 770.363342,287.556671 759.487122,257.709503 
	C748.992188,228.908615 735.423401,201.682968 718.334595,176.342865 
	C708.920654,162.383469 698.161926,149.297989 687.543701,136.195984 
	C680.976624,128.092758 673.934570,120.281670 666.411499,113.062996 
	C641.934265,89.576103 615.244446,68.958855 585.621521,52.248760 
	C551.627808,33.073116 515.720093,18.733402 477.574707,10.512182 
	C461.620026,7.073584 445.274933,5.449955 429.114899,2.952184 
	C428.064392,2.789809 427.078857,2.206913 426.031555,1.409814 
	C544.926514,1.000000 663.853088,1.000000 783.000000,1.000000 
	C783.000000,118.020805 783.000000,235.041748 783.000000,352.531372 
z"/>
<path fill="#000000" opacity="1.000000" stroke="none" 
	d="
M1.000003,432.468658 
	C1.661871,433.094360 2.792605,434.138000 2.917255,435.290466 
	C6.330818,466.850830 13.636829,497.443298 24.512936,527.290527 
	C35.007797,556.091492 48.576801,583.317017 65.665443,608.657227 
	C75.079247,622.616638 85.838112,635.702148 96.456383,648.804138 
	C103.023483,656.907349 110.065437,664.718445 117.588493,671.937134 
	C142.065811,695.424011 168.755692,716.041199 198.378632,732.751282 
	C232.372375,751.927002 268.280182,766.266541 306.425568,774.487854 
	C322.380249,777.926575 338.725342,779.550049 354.885406,782.047852 
	C355.935822,782.210205 356.921204,782.793091 357.968445,783.590210 
	C239.073441,784.000000 120.146881,784.000000 1.000000,784.000000 
	C1.000000,666.979187 1.000000,549.958252 1.000003,432.468658 
z"/>
<path fill="#000000" opacity="1.000000" stroke="none" 
	d="
M426.468628,784.000000 
	C426.929352,783.343140 427.817108,782.183105 428.794128,782.102295 
	C461.476196,779.397644 493.179535,772.168396 523.965637,761.058716 
	C561.135376,747.645447 595.961609,729.644653 627.112854,705.195251 
	C641.954224,693.546814 656.635559,681.476501 669.971191,668.175415 
	C693.849121,644.359436 714.137817,617.608215 731.018372,588.266968 
	C745.547302,563.013184 757.130310,536.529480 765.859131,508.808136 
	C772.571777,487.489990 777.398682,465.706696 780.065186,443.474030 
	C780.525208,439.638794 781.465576,435.861145 782.592041,432.028442 
	C783.000000,549.260925 783.000000,666.521851 783.000000,784.000000 
	C664.312500,784.000000 545.624939,784.000000 426.468628,784.000000 
z"/>
<path fill="#BCFBAE" opacity="1.000000" stroke="none" 
	d="
M152.750885,401.716278 
	C143.491760,407.301178 134.529343,412.666809 125.169823,418.270172 
	C109.374565,394.032257 93.814079,370.154602 78.253593,346.276947 
	C77.881874,346.368683 77.510155,346.460388 77.138428,346.552094 
	C76.521576,354.066833 75.852859,361.577728 75.300011,369.097168 
	C74.470146,380.384338 73.877464,391.692444 72.795990,402.954376 
	C72.599106,405.004700 70.984627,407.952393 69.276382,408.647705 
	C61.288136,411.899170 53.098042,414.698883 44.861019,417.280121 
	C38.974533,419.124786 37.466923,417.848206 37.928463,411.795746 
	C40.105129,383.251678 42.422268,354.718353 44.606571,326.174835 
	C45.406010,315.728119 46.535526,305.255188 46.371662,294.812134 
	C46.307896,290.748138 43.310978,286.619019 41.264751,282.721924 
	C37.732914,275.995422 37.573044,276.003540 44.113640,272.241943 
	C51.469315,268.011597 58.865654,263.849854 66.296875,259.753601 
	C71.848885,256.693176 72.980522,257.097290 76.037239,262.611816 
	C91.354904,290.246094 106.680725,317.875854 122.011627,345.502777 
	C122.382568,346.171265 122.846245,346.788300 124.077240,348.665253 
	C124.238823,345.631073 124.407219,343.923767 124.408920,342.216248 
	C124.430641,320.394318 124.422485,298.572357 124.435204,276.750427 
	C124.440636,267.438873 125.361420,266.367371 134.281616,264.374695 
	C141.091446,262.853455 147.858276,261.140533 154.661438,259.588348 
	C159.880402,258.397614 160.796692,259.544952 160.348068,264.712219 
	C159.571381,273.658295 158.967300,282.637360 158.775421,291.612946 
	C158.042297,325.902344 157.575790,360.197723 156.730606,394.483978 
	C156.672287,396.850464 154.328522,399.160645 152.750885,401.716278 
z"/>
<path fill="#BCFBAE" opacity="1.000000" stroke="none" 
	d="
M745.458862,309.371979 
	C733.401062,336.676178 721.504639,363.624451 709.577271,390.559052 
	C700.078918,412.008453 690.473083,433.410797 681.095154,454.912659 
	C679.612488,458.312164 678.203979,459.364594 674.380554,458.172760 
	C667.410278,455.999969 660.235474,454.449188 653.095886,452.864471 
	C647.102173,451.534088 646.677795,451.177124 649.110657,445.260406 
	C652.842773,436.183838 656.991455,427.275787 660.590759,418.149231 
	C661.549438,415.718292 661.895691,412.562988 661.261780,410.059723 
	C652.771057,376.530945 644.018250,343.068512 635.524536,309.540436 
	C635.150452,308.063782 636.297302,304.852509 637.307983,304.581299 
	C648.502930,301.576599 659.811157,298.993774 671.842651,296.116577 
	C675.981628,318.723907 680.131287,341.389191 684.280884,364.054504 
	C684.594971,364.151733 684.909058,364.248962 685.223145,364.346222 
	C687.422180,358.380981 689.666626,352.431976 691.811401,346.447327 
	C697.423523,330.787933 703.039795,315.129639 708.538818,299.430420 
	C709.674255,296.188629 711.033203,295.744110 714.442627,296.800751 
	C723.324585,299.553406 732.417786,301.633118 741.451111,303.883423 
	C744.237976,304.577576 746.871521,305.145660 745.458862,309.371979 
z"/>
<path fill="#BCFBAE" opacity="1.000000" stroke="none" 
	d="
M226.050674,386.219696 
	C240.225037,390.810303 252.988144,386.939514 265.546173,381.455383 
	C268.368195,380.223022 271.176483,378.959229 274.886108,377.312592 
	C274.886108,386.381683 274.965820,394.312653 274.788635,402.237915 
	C274.765594,403.267517 273.643982,404.712585 272.651215,405.216431 
	C245.670258,418.909454 213.992416,422.898163 189.960464,400.075714 
	C172.347656,383.349365 168.412842,356.350983 179.306870,332.574585 
	C191.427963,306.120087 220.419312,290.947937 247.285126,296.999268 
	C265.187531,301.031616 278.861206,316.012756 280.540863,334.307190 
	C281.388763,343.542175 276.981110,351.072906 270.251282,357.103333 
	C256.244324,369.654633 239.445648,373.481293 221.147995,372.332855 
	C218.874573,372.190155 216.604645,371.992065 213.980484,371.792877 
	C215.082474,379.432404 219.508987,383.478943 226.050674,386.219696 
M242.598694,340.156769 
	C246.176086,338.450287 249.642868,336.371277 249.250183,331.819794 
	C248.838455,327.047699 244.701172,325.559418 240.924271,324.301239 
	C234.777069,322.253387 229.059067,323.443054 224.176453,327.716156 
	C218.084641,333.047546 215.065857,340.092194 212.892960,348.546906 
	C223.332413,346.855469 232.962189,344.942810 242.598694,340.156769 
z"/>
<path fill="#BDFBAE" opacity="1.000000" stroke="none" 
	d="
M548.112671,310.027740 
	C551.444031,302.157227 558.502869,306.514679 563.998474,304.614868 
	C564.946899,297.562378 565.722412,290.322235 566.926758,283.154144 
	C569.275635,269.173248 573.828857,256.288147 586.602173,248.189133 
	C596.779907,241.735870 608.196838,241.609726 619.442322,243.388794 
	C627.912842,244.728851 636.111511,247.780991 644.435730,250.054291 
	C648.056763,251.043152 648.679443,252.979477 647.004333,256.344604 
	C644.488159,261.399109 642.323242,266.630371 640.067993,271.812164 
	C638.793030,274.741638 637.010376,275.963470 633.796387,274.441925 
	C631.703491,273.451233 629.442322,272.788208 627.215698,272.113007 
	C615.803406,268.652313 609.587830,271.864746 606.678040,283.375885 
	C604.934570,290.273285 604.077759,297.394775 602.687500,305.169769 
	C610.916016,305.169769 618.529480,305.158508 626.142944,305.173157 
	C632.742737,305.185883 633.464722,306.303802 630.819275,312.534149 
	C628.804688,317.278473 626.585144,321.939575 624.695923,326.731934 
	C623.328857,330.199768 621.028992,331.516296 617.377136,331.323608 
	C613.390625,331.113190 609.377319,331.421448 605.389038,331.228882 
	C602.399536,331.084534 601.285828,332.302856 601.005920,335.196320 
	C599.099304,354.905273 596.706177,374.576477 595.291077,394.318726 
	C594.779602,401.454071 592.520325,405.316467 585.490051,407.219452 
	C577.003967,409.516357 568.802368,412.854034 560.450378,415.660004 
	C554.621277,417.618378 552.610657,416.149109 553.162231,410.075531 
	C555.419495,385.220947 557.792236,360.376831 560.105713,335.527283 
	C560.196899,334.547791 560.117371,333.552399 560.117371,331.504822 
	C552.396179,331.504822 544.693481,331.504822 536.990723,331.504822 
	C536.570862,330.900726 536.151062,330.296600 535.731201,329.692505 
	C539.794006,323.241638 543.856750,316.790802 548.112671,310.027740 
z"/>
<path fill="#BCFBAE" opacity="1.000000" stroke="none" 
	d="
M440.478333,331.287231 
	C439.004395,332.111877 437.179169,332.847656 437.083496,333.764069 
	C435.598938,347.982178 433.846893,362.201691 433.207886,376.467957 
	C432.814819,385.243103 437.412262,388.430389 446.135071,386.798309 
	C450.033417,386.068878 453.819733,384.648682 457.586884,383.340424 
	C460.403778,382.362183 461.919006,382.857391 462.504364,386.053802 
	C463.492706,391.450806 464.715668,396.808807 465.983765,402.149048 
	C466.631348,404.876129 466.013763,406.802734 463.193787,407.539459 
	C451.952637,410.476074 440.846313,414.495667 429.411743,416.003326 
	C407.699921,418.865967 393.964661,406.472015 394.249847,384.426331 
	C394.447510,369.146332 396.435852,353.889648 397.617645,338.622070 
	C397.770630,336.645752 397.884949,334.666443 398.038757,332.366028 
	C390.938965,331.928131 384.120911,331.507599 375.831573,330.996338 
	C378.028381,327.249695 379.362579,324.876556 380.790466,322.561249 
	C383.062103,318.877869 385.449707,315.265381 387.689484,311.563171 
	C390.181763,307.443604 392.733337,303.531799 399.233276,305.545959 
	C400.179169,297.607452 401.180908,290.259766 401.900452,282.884521 
	C402.739655,274.283356 402.629150,274.257141 411.123108,272.373230 
	C420.695404,270.250153 430.271362,268.142944 439.856934,266.081055 
	C440.776825,265.883179 441.776123,266.054626 443.434326,266.054626 
	C442.196228,278.932709 440.974945,291.636139 439.673859,305.169281 
	C444.686707,305.169281 449.446960,305.168365 454.207214,305.169586 
	C457.873840,305.170532 461.541107,305.218597 465.206879,305.164307 
	C468.999084,305.108185 470.018585,306.984955 468.682892,310.252014 
	C466.227875,316.256897 463.875763,322.329926 460.921967,328.087921 
	C460.108917,329.672852 457.381073,330.957184 455.418671,331.135712 
	C450.624878,331.571808 445.764923,331.280731 440.478333,331.287231 
z"/>
<path fill="#BCFBAE" opacity="1.000000" stroke="none" 
	d="
M332.031067,415.102570 
	C321.105469,417.500092 310.809021,416.662231 300.648132,413.268463 
	C296.992950,412.047638 294.965179,410.234253 295.013519,405.805634 
	C295.101868,397.720184 294.396881,389.626068 293.960175,380.180176 
	C296.670380,381.945282 298.436798,382.925598 300.012085,384.151520 
	C306.377808,389.105286 313.544220,391.186066 321.522583,390.105865 
	C325.381897,389.583313 329.404938,388.675751 330.332184,384.083832 
	C331.173218,379.918915 328.374664,377.245178 325.335693,375.060486 
	C319.802948,371.083099 314.224823,367.162659 308.560883,363.375122 
	C290.297455,351.161987 286.932465,319.218689 310.935730,304.390350 
	C324.548950,295.980652 338.848083,293.117767 354.272400,298.815918 
	C363.116150,302.083038 364.428589,303.870178 364.861542,313.260010 
	C365.098755,318.405884 365.508575,323.545868 365.633484,328.693512 
	C365.666534,330.054413 364.931854,331.433929 364.549652,332.804901 
	C363.279327,332.237701 361.894562,331.839935 360.759094,331.073059 
	C356.512634,328.204956 352.647186,324.549500 348.055908,322.487000 
	C344.495392,320.887512 340.056305,320.748260 336.026276,320.833801 
	C332.252655,320.913910 328.757568,322.714478 327.921722,326.952728 
	C327.078979,331.226166 327.666809,335.368011 331.552673,338.138123 
	C336.698212,341.806213 342.135895,345.079773 347.150055,348.912720 
	C352.273102,352.828796 357.856812,356.564545 361.795074,361.525391 
	C371.765076,374.084259 369.204285,392.288422 356.842957,403.272186 
	C349.808319,409.522827 341.642975,413.306152 332.031067,415.102570 
z"/>
<path fill="#BCFBAE" opacity="1.000000" stroke="none" 
	d="
M521.093262,370.202881 
	C520.100708,380.255615 519.224487,389.861389 518.045532,399.429840 
	C517.859314,400.941559 516.604919,403.123047 515.337463,403.575775 
	C503.137634,407.933502 490.829956,411.989685 478.545593,416.109680 
	C478.269135,416.202393 477.903931,416.030701 476.801544,415.866119 
	C477.285767,408.913940 477.661407,401.875824 478.284760,394.859680 
	C480.801605,366.530090 483.402679,338.208008 485.947662,309.880890 
	C486.201996,307.050110 486.766968,304.906555 490.223785,304.164825 
	C502.082520,301.620270 513.873657,298.761017 525.697632,296.052643 
	C526.135010,295.952423 526.646179,296.174408 527.887268,296.361389 
	C525.626099,320.843994 523.367920,345.293793 521.093262,370.202881 
z"/>
<path fill="#BBFAAE" opacity="1.000000" stroke="none" 
	d="
M495.822937,250.798279 
	C508.028839,248.161072 519.833984,245.622284 532.350342,242.930557 
	C532.193481,246.461655 532.135193,249.703064 531.888672,252.930115 
	C531.356689,259.895142 530.924316,266.879120 529.997620,273.794556 
	C529.773071,275.470245 528.027344,277.962067 526.574524,278.292847 
	C514.281067,281.092041 501.893280,283.477173 488.844635,286.126526 
	C488.844635,283.567200 488.707428,281.517792 488.868835,279.492157 
	C489.502716,271.537628 490.313873,263.596527 490.881287,255.637756 
	C491.097168,252.610275 492.368103,251.003937 495.822937,250.798279 
z"/>
<path fill="#ADE6B1" opacity="1.000000" stroke="none" 
	d="
M264.508484,507.888458 
	C264.377563,510.993011 264.246216,513.637817 264.114868,516.282654 
	C263.512115,516.308167 262.909363,516.333679 262.306610,516.359192 
	C262.134003,514.750916 261.858093,513.145569 261.811676,511.533630 
	C261.730347,508.708832 261.875549,505.876709 261.767853,503.053650 
	C261.641846,499.750061 261.974304,495.984039 257.049103,495.845245 
	C253.076248,495.733337 250.892029,498.299530 250.842377,503.038666 
	C250.797409,507.332397 250.832886,511.626953 250.832886,516.043213 
	C247.812027,515.152832 247.874115,515.151917 247.738342,505.713928 
	C247.682358,501.821838 247.295273,497.934540 247.017120,493.359985 
	C248.476151,494.295258 249.597458,495.014038 250.744339,495.749237 
	C256.890228,491.879211 258.475159,491.895996 264.152863,496.041901 
	C265.157654,495.309326 266.131989,494.387756 267.277557,493.799957 
	C272.525330,491.107483 277.904816,494.313416 278.120300,500.329529 
	C278.273987,504.620514 278.150146,508.921387 278.150146,513.178589 
	C280.020660,513.673767 281.353821,514.026733 282.686981,514.379700 
	C282.735901,514.787170 282.784821,515.194702 282.833740,515.602173 
	C281.308380,515.884277 279.411957,516.848938 278.352814,516.273254 
	C277.067993,515.574951 275.896088,513.642395 275.726532,512.126343 
	C275.340729,508.677063 275.778137,505.143372 275.536072,501.668030 
	C275.339691,498.848358 274.969482,495.750977 270.963013,495.800446 
	C266.966644,495.849762 264.852631,498.042816 264.542694,501.942993 
	C264.398224,503.761017 264.511597,505.599487 264.508484,507.888458 
z"/>
<path fill="#AAE3AF" opacity="1.000000" stroke="none" 
	d="
M532.236572,498.084839 
	C530.007263,497.216064 527.573059,495.852448 525.989380,496.516754 
	C524.262390,497.241150 522.541504,499.712402 522.211487,501.658478 
	C521.607605,505.219971 522.087097,508.956787 521.990173,512.617188 
	C521.956787,513.877380 521.552185,515.127747 521.317139,516.382568 
	C520.738953,516.350769 520.160767,516.319031 519.582581,516.287231 
	C519.197510,508.827667 518.812439,501.368073 518.398682,493.352966 
	C519.878662,494.230377 521.047546,494.923340 522.187439,495.599152 
	C527.955872,491.810089 530.494568,491.902618 535.236450,496.259583 
	C536.334656,495.494202 537.432739,494.548279 538.682373,493.890137 
	C543.437134,491.385742 548.335022,493.553894 549.302307,498.861450 
	C549.892212,502.097931 549.960693,505.484833 549.813721,508.784149 
	C549.675720,511.880310 550.017761,514.264343 554.293396,514.308350 
	C554.187927,514.725464 554.082458,515.142578 553.976990,515.559692 
	C552.643005,515.900879 550.934814,516.914551 550.061279,516.428406 
	C548.691650,515.666016 547.162292,513.980042 546.983582,512.527405 
	C546.539490,508.918030 546.867615,505.218536 546.795288,501.557037 
	C546.736206,498.566620 546.362549,495.664642 542.307129,495.825165 
	C538.678345,495.968811 536.219116,497.731232 536.013428,501.519714 
	C535.797058,505.504028 536.039124,509.511749 535.893982,513.502441 
	C535.859741,514.443542 535.076782,515.357361 534.638245,516.283752 
	C534.049805,515.325134 533.012756,514.395569 532.948608,513.403076 
	C532.627747,508.438965 532.561951,503.458344 532.236572,498.084839 
z"/>
<path fill="#A7DFAC" opacity="1.000000" stroke="none" 
	d="
M210.119232,494.031494 
	C210.118790,490.729492 210.118790,487.910095 210.118790,483.810333 
	C213.905319,488.098358 213.780212,513.694336 210.381836,516.940063 
	C210.381836,511.616486 210.381836,506.983643 210.381836,501.675110 
	C205.049210,501.675110 200.452942,501.490204 195.894974,501.825867 
	C194.945724,501.895782 193.489334,503.834320 193.385696,505.010315 
	C193.059387,508.713501 193.265472,512.463562 193.265472,516.195496 
	C192.631683,516.311462 191.997879,516.427429 191.364090,516.543396 
	C190.944489,515.148376 190.188248,513.759888 190.161163,512.357239 
	C190.010406,504.549622 190.040024,496.738525 189.988968,488.928772 
	C189.986908,488.614288 189.793808,488.301025 189.611359,487.750977 
	C188.213745,487.544434 186.712311,487.322571 185.210876,487.100677 
	C185.115433,486.716949 185.019989,486.333221 184.924545,485.949493 
	C186.403351,485.374115 188.097580,484.060272 189.305756,484.412689 
	C190.772324,484.840485 191.871872,486.635681 193.030396,487.928711 
	C193.299255,488.228729 193.148117,488.892914 193.217575,489.385712 
	C193.642044,492.396637 193.512497,497.744354 194.602737,498.006378 
	C199.004944,499.064423 203.793579,498.714386 208.413040,498.439270 
	C209.057556,498.400818 209.554443,495.883728 210.119232,494.031494 
z"/>
<path fill="#ABE3B1" opacity="1.000000" stroke="none" 
	d="
M375.775024,494.176514 
	C378.083679,494.157654 378.235504,494.204163 377.747620,495.796661 
	C375.898285,501.832886 373.991364,507.852966 371.974945,513.834900 
	C371.653503,514.788513 370.660950,515.515869 369.978638,516.347778 
	C369.130524,515.493958 367.891418,514.788391 367.501617,513.760742 
	C365.759460,509.168182 364.259613,504.483673 361.552795,499.689850 
	C360.086761,503.996857 358.718842,508.341309 357.098328,512.589355 
	C356.574890,513.961487 355.387909,515.080444 354.504456,516.315247 
	C353.711884,515.159485 352.640717,514.105652 352.173798,512.830627 
	C349.858368,506.507965 347.702332,500.126892 346.008057,493.473969 
	C351.670532,497.662323 351.165619,505.193604 354.751343,511.183746 
	C356.992126,504.873444 359.109009,498.912140 361.225861,492.950867 
	C361.925537,492.888306 362.625244,492.825745 363.324921,492.763184 
	C365.346161,498.793549 367.367432,504.823883 369.677887,511.717072 
	C371.853516,505.386414 373.728394,499.930817 375.775024,494.176514 
z"/>
<path fill="#B9F1B7" opacity="1.000000" stroke="none" 
	d="
M470.120728,498.832245 
	C481.274353,498.847290 481.261261,498.846710 481.741272,488.037018 
	C481.786591,487.016663 482.131042,486.009552 483.287048,485.037048 
	C484.491058,495.437500 484.320374,505.806335 484.317383,516.171814 
	C483.674927,516.226746 483.032471,516.281677 482.390015,516.336609 
	C482.390015,511.689056 482.390015,507.041504 482.390015,501.931091 
	C476.000458,501.931091 470.629059,501.931091 464.236694,501.931091 
	C464.236694,506.711365 464.236694,511.469727 464.236694,516.228088 
	C463.566803,516.237671 462.896881,516.247314 462.226990,516.256897 
	C462.226990,506.740082 462.226990,497.223236 462.226990,487.470184 
	C459.870819,487.343750 458.496063,487.269958 456.970062,487.188049 
	C457.079437,486.439026 456.979553,485.734833 457.238495,485.559021 
	C460.779724,483.154297 463.775208,484.445221 464.269928,488.623199 
	C464.464294,490.264862 464.532104,491.967896 464.326965,493.601440 
	C463.803253,497.772186 465.516510,499.474609 470.120728,498.832245 
z"/>
<path fill="#ACE5B1" opacity="1.000000" stroke="none" 
	d="
M340.014771,489.704590 
	C338.966675,491.216156 337.918518,492.372955 336.870361,493.529755 
	C337.084351,487.781555 335.367554,485.645813 331.107666,487.024506 
	C329.599518,487.512573 327.617432,489.105835 327.423645,490.425385 
	C327.189178,492.022064 328.177734,494.368896 329.439575,495.478394 
	C331.248199,497.068695 333.804321,497.792816 336.003632,498.957886 
	C342.798920,502.557648 344.726227,507.329895 341.508057,512.484314 
	C338.150940,517.861450 330.036896,519.236938 324.822906,515.054565 
	C323.139038,513.703918 322.064728,511.593201 320.711578,509.830200 
	C321.540100,509.104584 322.368622,508.378998 323.197144,507.653412 
	C323.919983,509.093750 324.343506,510.831177 325.422333,511.918243 
	C328.525970,515.045410 332.266663,515.979736 336.294556,513.710876 
	C341.225250,510.933472 341.239990,504.972839 336.336121,502.162384 
	C333.897888,500.764984 331.297272,499.654083 328.801605,498.353149 
	C325.384247,496.571747 323.223541,493.821686 324.171570,489.892426 
	C325.080353,486.125763 328.012146,484.060791 331.852722,483.912354 
	C335.728638,483.762512 339.183258,484.709839 340.014771,489.704590 
z"/>
<path fill="#ACE3B2" opacity="1.000000" stroke="none" 
	d="
M288.364807,514.785034 
	C283.728638,508.559143 283.605927,502.099640 287.773499,496.662201 
	C290.697449,492.847321 294.865509,491.743073 298.841461,493.732269 
	C301.038055,494.831238 303.454742,498.242828 303.321533,500.464966 
	C303.190582,502.649170 300.328705,505.496552 297.995026,506.510498 
	C295.138428,507.751678 291.584839,507.388763 287.596893,507.794250 
	C290.948608,516.840698 297.515472,513.732483 303.491394,512.697510 
	C300.565155,517.589050 295.229431,518.285034 288.364807,514.785034 
M297.110840,495.957489 
	C290.546722,495.869995 287.987671,498.368408 288.276367,505.036804 
	C290.893982,504.869904 293.641510,505.129395 296.090149,504.393799 
	C297.880463,503.855988 299.975250,502.275482 300.595154,500.649261 
	C300.983093,499.631683 298.886383,497.666931 297.110840,495.957489 
z"/>
<path fill="#AAE1B1" opacity="1.000000" stroke="none" 
	d="
M226.244843,516.104858 
	C220.322388,511.890411 218.357330,507.196869 220.138031,501.340881 
	C221.477432,496.936157 224.197174,493.642761 229.081619,493.015076 
	C233.714157,492.419800 237.725739,493.717682 240.305023,497.876587 
	C242.967865,502.170197 243.251114,506.737732 240.789536,511.171722 
	C238.496643,515.301819 234.835052,517.365356 230.011597,516.962708 
	C228.864746,516.866943 227.740387,516.501770 226.244843,516.104858 
M222.725113,505.418396 
	C223.858322,507.846893 224.419418,510.913696 226.254807,512.558777 
	C229.229492,515.225098 233.086563,514.812378 236.318207,512.431519 
	C239.351425,510.196838 240.154648,504.027527 238.278549,500.037659 
	C236.396286,496.034729 232.943329,495.279663 229.128845,495.892395 
	C224.342422,496.661255 222.833817,500.169983 222.725113,505.418396 
z"/>
<path fill="#ADE5B2" opacity="1.000000" stroke="none" 
	d="
M386.837708,494.551514 
	C389.705811,493.978455 392.690826,492.659668 394.711609,493.544098 
	C397.015717,494.552460 399.362427,497.265594 400.062927,499.705231 
	C401.065796,503.197784 398.514984,505.768280 395.058716,506.539093 
	C391.877106,507.248596 388.559723,507.349182 385.306641,507.717529 
	C386.108887,514.172302 387.516632,514.654785 400.410309,512.892334 
	C398.225739,517.103394 394.550842,517.099731 391.040436,516.901062 
	C386.664581,516.653503 383.165710,514.366394 382.193573,510.085266 
	C380.905975,504.414703 381.132904,498.754120 386.837708,494.551514 
M390.974152,504.837616 
	C394.152802,504.132874 398.333313,503.910217 397.205139,499.281860 
	C396.830109,497.743408 393.274231,496.054108 391.173889,496.055817 
	C386.849487,496.059326 384.697784,499.699524 385.269287,504.931641 
	C386.866730,504.931641 388.495789,504.931641 390.974152,504.837616 
z"/>
<path fill="#AAE3AF" opacity="1.000000" stroke="none" 
	d="
M418.315063,493.323456 
	C422.271759,494.647522 424.284576,497.094727 423.846832,500.914978 
	C423.395782,504.851471 420.462921,506.436737 416.936401,506.956757 
	C414.212524,507.358429 411.441986,507.443573 407.967590,507.728973 
	C411.270874,517.091370 417.954346,513.543579 423.832764,512.730774 
	C421.304260,516.856628 416.102234,518.137634 411.232544,516.151001 
	C406.488007,514.215454 403.933929,508.486481 405.281891,502.803101 
	C407.008575,495.522888 410.745605,492.693420 418.315063,493.323456 
M410.742920,504.961517 
	C413.037170,504.689819 415.525269,504.869110 417.560303,503.994385 
	C419.017151,503.368195 420.971771,501.082123 420.724670,499.980927 
	C420.368652,498.394348 418.414978,496.413635 416.791840,496.008545 
	C412.339691,494.897369 408.245605,498.546326 408.187103,503.258057 
	C408.180206,503.812378 409.303619,504.380707 410.742920,504.961517 
z"/>
<path fill="#ABE2B1" opacity="1.000000" stroke="none" 
	d="
M566.215454,507.195099 
	C563.852966,507.319519 561.912598,507.407318 559.928162,507.497101 
	C560.731567,512.973145 560.731567,512.973145 574.726807,513.193176 
	C571.348572,518.703186 561.559570,518.224731 557.809998,512.366272 
	C554.718933,507.536896 555.972717,499.187439 560.320496,495.433594 
	C563.755066,492.468140 567.754639,491.783020 571.278687,494.421570 
	C573.166443,495.834961 574.955322,499.068848 574.722839,501.262299 
	C574.284790,505.395874 570.637573,506.936249 566.215454,507.195099 
M559.356384,502.146912 
	C559.820129,503.081543 560.446594,504.873383 560.723022,504.820923 
	C564.327576,504.136932 567.940063,503.349945 571.373474,502.101685 
	C571.779907,501.953918 571.365356,498.849304 570.868896,497.259796 
	C570.669983,496.623291 569.260803,496.176941 568.332581,495.988007 
	C563.773804,495.060272 561.053345,497.179413 559.356384,502.146912 
z"/>
<path fill="#ACE3B2" opacity="1.000000" stroke="none" 
	d="
M502.883759,516.998291 
	C494.846191,516.066833 490.817993,511.740753 490.998749,504.693268 
	C491.161835,498.334991 495.275360,493.518372 501.020905,492.958069 
	C507.507843,492.325470 512.622620,496.465790 513.501953,503.061310 
	C514.480469,510.400574 510.742249,515.497742 502.883759,516.998291 
M510.849365,506.178345 
	C510.750183,504.858887 510.836670,503.492706 510.518677,502.228302 
	C509.352081,497.589874 505.976532,495.241455 501.338959,495.677582 
	C497.279877,496.059296 494.352997,499.268646 493.967896,503.760040 
	C493.528137,508.888672 495.915314,512.930603 499.992279,513.960449 
	C504.971375,515.218201 508.556091,512.893616 510.849365,506.178345 
z"/>
<path fill="#A8DFAD" opacity="1.000000" stroke="none" 
	d="
M440.758728,512.544312 
	C439.259308,514.192871 437.688232,516.388428 435.780762,516.735596 
	C434.166321,517.029358 430.946899,515.563477 430.528137,514.223206 
	C427.787048,505.450317 429.509308,496.519531 429.329987,487.638062 
	C429.979248,487.547668 430.628479,487.457275 431.277740,487.366882 
	C431.861847,489.175232 432.445984,490.983582 433.032349,492.790222 
	C435.162750,493.291809 437.290894,493.795074 439.419037,494.298309 
	C432.307983,497.380798 432.307983,497.380798 432.339569,505.456482 
	C432.340210,505.622833 432.341034,505.789154 432.341736,505.955505 
	C432.380798,514.873169 432.864960,515.247131 440.758728,512.544312 
z"/>
<path fill="#2B5B58" opacity="1.000000" stroke="none" 
	d="
M242.271759,340.337402 
	C232.962189,344.942810 223.332413,346.855469 212.892960,348.546906 
	C215.065857,340.092194 218.084641,333.047546 224.176453,327.716156 
	C229.059067,323.443054 234.777069,322.253387 240.924271,324.301239 
	C244.701172,325.559418 248.838455,327.047699 249.250183,331.819794 
	C249.642868,336.371277 246.176086,338.450287 242.271759,340.337402 
z"/>
<path fill="#2E5E54" opacity="1.000000" stroke="none" 
	d="
M297.507690,496.042328 
	C298.886383,497.666931 300.983093,499.631683 300.595154,500.649261 
	C299.975250,502.275482 297.880463,503.855988 296.090149,504.393799 
	C293.641510,505.129395 290.893982,504.869904 288.276367,505.036804 
	C287.987671,498.368408 290.546722,495.869995 297.507690,496.042328 
z"/>
<path fill="#2B5B56" opacity="1.000000" stroke="none" 
	d="
M222.724548,504.989227 
	C222.833817,500.169983 224.342422,496.661255 229.128845,495.892395 
	C232.943329,495.279663 236.396286,496.034729 238.278549,500.037659 
	C240.154648,504.027527 239.351425,510.196838 236.318207,512.431519 
	C233.086563,514.812378 229.229492,515.225098 226.254807,512.558777 
	C224.419418,510.913696 223.858322,507.846893 222.724548,504.989227 
z"/>
<path fill="#2E5F55" opacity="1.000000" stroke="none" 
	d="
M390.549500,504.884644 
	C388.495789,504.931641 386.866730,504.931641 385.269287,504.931641 
	C384.697784,499.699524 386.849487,496.059326 391.173889,496.055817 
	C393.274231,496.054108 396.830109,497.743408 397.205139,499.281860 
	C398.333313,503.910217 394.152802,504.132874 390.549500,504.884644 
z"/>
<path fill="#2E5E54" opacity="1.000000" stroke="none" 
	d="
M410.322998,504.952026 
	C409.303619,504.380707 408.180206,503.812378 408.187103,503.258057 
	C408.245605,498.546326 412.339691,494.897369 416.791840,496.008545 
	C418.414978,496.413635 420.368652,498.394348 420.724670,499.980927 
	C420.971771,501.082123 419.017151,503.368195 417.560303,503.994385 
	C415.525269,504.869110 413.037170,504.689819 410.322998,504.952026 
z"/>
<path fill="#2E5E54" opacity="1.000000" stroke="none" 
	d="
M559.538208,501.787811 
	C561.053345,497.179413 563.773804,495.060272 568.332581,495.988007 
	C569.260803,496.176941 570.669983,496.623291 570.868896,497.259796 
	C571.365356,498.849304 571.779907,501.953918 571.373474,502.101685 
	C567.940063,503.349945 564.327576,504.136932 560.723022,504.820923 
	C560.446594,504.873383 559.820129,503.081543 559.538208,501.787811 
z"/>
<path fill="#2A5A55" opacity="1.000000" stroke="none" 
	d="
M510.810059,506.574646 
	C508.556091,512.893616 504.971375,515.218201 499.992279,513.960449 
	C495.915314,512.930603 493.528137,508.888672 493.967896,503.760040 
	C494.352997,499.268646 497.279877,496.059296 501.338959,495.677582 
	C505.976532,495.241455 509.352081,497.589874 510.518677,502.228302 
	C510.836670,503.492706 510.750183,504.858887 510.810059,506.574646 
z"/>
</svg>